<svg width="83" height="41" viewBox="0 0 83 41" fill="none" xmlns="http://www.w3.org/2000/svg">
<path d="M82.3333 34.5688V37.7845C82.3333 39.5532 81.033 41.0002 79.4446 41.0002H2.88876C1.3003 41.0002 0 39.5532 0 37.7845V34.5688H82.3333Z" fill="#BD852D"/>
<path d="M5.67816 37.7845V34.5688H0V37.7845C0 39.5532 1.27759 41.0002 2.83908 41.0002H8.51724C6.95575 41.0002 5.67816 39.5532 5.67816 37.7845Z" fill="#CA9D57"/>
<path d="M74.3981 21.0463C74.9233 21.6251 75.2356 22.429 75.2356 23.3133C75.2356 25.082 73.958 26.529 72.3965 26.529H68.1379L65.2278 34.5682H18.5675L14.1954 26.529H9.93674C8.37524 26.529 7.09766 25.082 7.09766 23.3133C7.09766 21.5447 8.37524 20.0977 9.93674 20.0977H72.3965C73.1773 20.0977 73.887 20.4514 74.3981 21.0463Z" fill="#E6E6E6"/>
<path d="M15.6149 26.529C14.0534 26.529 12.7758 25.082 12.7758 23.3133C12.7758 21.5447 14.0534 20.0977 15.6149 20.0977H9.93674C8.37524 20.0977 7.09766 21.5447 7.09766 23.3133C7.09766 25.082 8.37524 26.529 9.93674 26.529H14.1954L18.5675 34.5682H24.2457L19.8735 26.529H15.6149Z" fill="#E4DADA"/>
<path d="M70.9767 19.2941H53.9422H36.9077C36.9077 8.63411 44.5306 0 53.9422 0C63.3538 0 70.9767 8.63411 70.9767 19.2941Z" fill="#F7BD63"/>
<path d="M53.9422 6.43164C61.6248 6.43164 68.1106 12.0591 70.2371 20.0983H70.9767C70.9767 8.84341 63.3538 0.804199 53.9422 0.804199C44.5306 0.804199 36.9077 8.84341 36.9077 20.0983H37.6473C39.7738 12.0591 46.2596 6.43164 53.9422 6.43164Z" fill="#FFD89A"/>
<path d="M51.1031 13.6669C51.8871 13.6669 52.5227 12.947 52.5227 12.059C52.5227 11.171 51.8871 10.4512 51.1031 10.4512C50.3191 10.4512 49.6836 11.171 49.6836 12.059C49.6836 12.947 50.3191 13.6669 51.1031 13.6669Z" fill="#FEF0D8"/>
<path d="M56.7818 8.84362C57.5658 8.84362 58.2014 8.12376 58.2014 7.23577C58.2014 6.34779 57.5658 5.62793 56.7818 5.62793C55.9979 5.62793 55.3623 6.34779 55.3623 7.23577C55.3623 8.12376 55.9979 8.84362 56.7818 8.84362Z" fill="#FEF0D8"/>
<path d="M42.5862 19.2944H12.7759C12.7759 9.96897 19.4477 2.41211 27.681 2.41211C35.9144 2.41211 42.5862 9.96897 42.5862 19.2944Z" fill="#FEDDE0"/>
<path d="M30.5201 6.02943C33.9128 6.02943 37.0287 7.12598 39.5328 9.28692C36.8101 5.23837 32.5217 2.91504 27.6811 2.91504C19.4477 2.91343 12.7759 10.451 12.7759 20.098H15.8918C17.219 12.0588 23.2592 6.02943 30.5201 6.02943Z" fill="#FEEBEC"/>
<path d="M35.4885 19.2943H19.8735C19.8735 14.4065 23.3656 10.4512 27.681 10.4512C31.9964 10.4512 35.4885 14.4065 35.4885 19.2943Z" fill="#F85766"/>
</svg>
