<svg width="55" height="55" viewBox="0 0 55 55" fill="none" xmlns="http://www.w3.org/2000/svg">
<g clip-path="url(#clip0)">
<path d="M49.0218 29.8913C50.3425 29.8913 51.4131 30.9619 51.4131 32.2826C51.4131 33.0953 51.0068 33.8121 50.3872 34.2443C51.0407 35.4366 51.4131 36.8051 51.4131 38.261C51.4131 39.3027 51.079 40.2656 50.5137 41.0511C51.0764 41.7637 51.4131 42.6629 51.4131 43.6414C51.4131 45.9526 49.5395 47.8263 47.2282 47.8263H49.0218C50.3425 47.8263 51.4131 48.8968 51.4131 50.2176C51.4131 52.8589 49.2717 55.0002 46.6304 55.0002H8.36955C5.72826 55.0002 3.58691 52.859 3.58691 50.2176C3.58691 48.8968 4.65748 47.8263 5.97823 47.8263H7.77175C5.46057 47.8263 3.58691 45.9527 3.58691 43.6414C3.58691 42.6629 3.92357 41.7637 4.48625 41.0511C3.921 40.2656 3.58691 39.3027 3.58691 38.261C3.58691 36.8053 3.95913 35.4368 4.61279 34.2443C3.99318 33.8121 3.58691 33.0954 3.58691 32.2826C3.58691 30.9619 4.65748 29.8913 5.97823 29.8913C4.65748 29.8913 3.58691 28.8208 3.58691 27.5H51.413C51.4131 28.8208 50.3424 29.8913 49.0218 29.8913Z" fill="#F4C064"/>
<path d="M51.4131 43.6414C51.4131 45.9526 49.5395 47.8262 47.2282 47.8262H7.77175C5.46057 47.8262 3.58691 45.9527 3.58691 43.6414C3.58691 41.3302 5.46046 39.4565 7.77175 39.4565H47.2282C49.5394 39.4565 51.4131 41.3302 51.4131 43.6414Z" fill="#99774F"/>
<path d="M51.4129 38.2607C51.4129 40.902 49.2716 43.0433 46.6303 43.0433C45.0626 43.0433 43.6719 42.2883 42.7999 41.1228C42.5762 40.8238 42.2212 40.652 41.8477 40.652C41.4742 40.652 41.1192 40.8238 40.8955 41.1228C40.0236 42.2883 38.6329 43.0433 37.0652 43.0433C35.4975 43.0433 34.1068 42.2883 33.2349 41.1228C33.0112 40.8238 32.6562 40.652 32.2827 40.652C31.9092 40.652 31.5541 40.8238 31.3305 41.1228C30.4586 42.2883 29.0679 43.0433 27.5002 43.0433C25.9324 43.0433 24.5418 42.2883 23.6698 41.1228C23.4461 40.8238 23.0911 40.652 22.7176 40.652C22.3441 40.652 21.9891 40.8238 21.7654 41.1228C20.8935 42.2883 19.5028 43.0433 17.9351 43.0433C16.3674 43.0433 14.9767 42.2883 14.1048 41.1228C13.881 40.8238 13.5261 40.652 13.1526 40.652C12.7791 40.652 12.424 40.8238 12.2004 41.1228C11.3284 42.2883 9.93775 43.0433 8.37004 43.0433C5.72875 43.0433 3.5874 40.902 3.5874 38.2607C3.5874 33.6383 7.3346 29.8911 11.957 29.8911H13.1526H22.7177H32.2829H41.8481H43.0437C47.6657 29.8911 51.4129 33.6383 51.4129 38.2607Z" fill="#91F18B"/>
<path d="M51.4131 32.2824C51.4131 33.6032 50.3425 34.6737 49.0218 34.6737H5.97823C4.65748 34.6737 3.58691 33.6032 3.58691 32.2824C3.58691 30.9617 4.65748 29.8911 5.97823 29.8911H49.0218C50.3424 29.8911 51.4131 30.9617 51.4131 32.2824Z" fill="#F9632C"/>
<path d="M27.4999 38.2607C25.9547 38.2607 24.4585 37.719 23.2715 36.7298L10.7607 26.3042H44.239L31.7282 36.7298C30.5412 37.719 29.045 38.2607 27.4999 38.2607Z" fill="#FFE954"/>
<path d="M49.0218 29.8912H5.97823C4.65748 29.8912 3.58691 28.8206 3.58691 27.4999C3.58691 18.255 11.0813 10.7607 20.326 10.7607H34.6738C43.9187 10.7607 51.413 18.2551 51.413 27.4999C51.4131 28.8206 50.3424 29.8912 49.0218 29.8912Z" fill="#F4C064"/>
<path d="M23.9131 54.9999H8.36955C5.72826 54.9999 3.58691 52.8586 3.58691 50.2172C3.58691 48.8965 4.65748 47.8259 5.97823 47.8259H21.5218C20.201 47.8259 19.1304 48.8965 19.1304 50.2172C19.1304 52.8585 21.2717 54.9999 23.9131 54.9999ZM20.326 10.7607C11.0812 10.7607 3.58691 18.2551 3.58691 27.4999C3.58691 28.8206 4.65748 29.8912 5.97823 29.8912H21.5218C20.201 29.8912 19.1304 28.8206 19.1304 27.4999C19.1304 18.255 26.6248 10.7607 35.8696 10.7607H20.326Z" fill="#FBC17C"/>
<path d="M46.3314 25.1086C46.3314 25.6038 45.9299 26.0054 45.4347 26.0054H44.2391C43.7438 26.0054 43.3423 25.6038 43.3423 25.1086C43.3423 24.6134 43.7438 24.2118 44.2391 24.2118H45.4347C45.93 24.2118 46.3314 24.6134 46.3314 25.1086ZM40.6521 15.8423H39.4565C38.9613 15.8423 38.5598 16.2438 38.5598 16.739C38.5598 17.2343 38.9613 17.6358 39.4565 17.6358H40.6521C41.1474 17.6358 41.5489 17.2343 41.5489 16.739C41.5489 16.2438 41.1474 15.8423 40.6521 15.8423ZM45.1358 20.326C45.1358 19.8308 44.7343 19.4292 44.2391 19.4292H43.0435C42.5482 19.4292 42.1467 19.8308 42.1467 20.326C42.1467 20.8212 42.5482 21.2227 43.0435 21.2227H44.2391C44.7343 21.2227 45.1358 20.8213 45.1358 20.326ZM38.2608 21.8205H37.0652C36.57 21.8205 36.1685 22.2221 36.1685 22.7173C36.1685 23.2125 36.57 23.614 37.0652 23.614H38.2608C38.756 23.614 39.1576 23.2125 39.1576 22.7173C39.1576 22.2221 38.756 21.8205 38.2608 21.8205Z" fill="#FFEE92"/>
<path d="M38.2609 7.17415H27.5V1.1958H38.2609C38.9212 1.1958 39.4565 1.73108 39.4565 2.39141V5.97833C39.4565 6.63887 38.9212 7.17415 38.2609 7.17415Z" fill="#F9632C"/>
<path d="M28.3965 0.896758V14.3478H26.603V0.896758C26.603 0.401543 27.0046 0 27.4998 0C27.995 0 28.3965 0.401543 28.3965 0.896758Z" fill="#CEA05D"/>
<path d="M30.7879 14.3479C30.7879 14.8431 30.3863 15.2447 29.8911 15.2447H23.9129C23.4177 15.2447 23.0161 14.8431 23.0161 14.3479C23.0161 13.8527 23.4177 13.4512 23.9129 13.4512H29.8911C30.3863 13.4512 30.7879 13.8527 30.7879 14.3479Z" fill="#FA9337"/>
</g>
<defs>
<clipPath id="clip0">
<rect width="55" height="55" fill="white"/>
</clipPath>
</defs>
</svg>
