<svg width="76" height="65" viewBox="0 0 76 65" fill="none" xmlns="http://www.w3.org/2000/svg">
<g clip-path="url(#clip0)">
<g clip-path="url(#clip1)">
<path d="M99.489 60.1542C98.858 60.2482 98.192 60.3002 97.5 60.3002C95.664 60.3002 94.003 59.9412 92.756 59.3632C91.507 59.9422 89.839 60.3002 88 60.3002C85.766 60.3002 83.782 59.7752 82.5 58.9602C81.218 59.7752 79.234 60.3002 77 60.3002C74.449 60.3002 72.223 59.6152 71 58.5962C69.777 59.6152 67.551 60.3002 65 60.3002C62.766 60.3002 60.782 59.7752 59.5 58.9602C58.218 59.7752 56.234 60.3002 54 60.3002C53.118 60.3002 52.277 60.2152 51.5 60.0662C51.5 60.4082 51.5 60.7472 51.5 60.8002C51.5 64.9422 54.858 68.3002 59 68.3002H92C96.142 68.3002 99.5 64.9422 99.5 60.8002C99.5 60.6872 99.488 60.5772 99.483 60.4662C99.485 60.4482 99.487 60.3172 99.489 60.1542Z" fill="#EEAF4B"/>
<path d="M99.5 48.8003C99.5 44.6583 96.142 41.3003 92 41.3003C89.824 41.3003 87.87 42.2333 86.5 43.7133C85.13 42.2323 83.176 41.3003 81 41.3003C78.824 41.3003 76.87 42.2333 75.5 43.7133C74.13 42.2323 72.176 41.3003 70 41.3003C67.824 41.3003 65.87 42.2333 64.5 43.7133C63.13 42.2323 61.176 41.3003 59 41.3003C54.858 41.3003 51.5 44.6583 51.5 48.8003C51.5 48.9133 51.512 49.0233 51.517 49.1343C51.512 49.1903 51.5 49.2433 51.5 49.3003V53.3003C51.5 54.4003 52.4 55.3003 53.5 55.3003H97.5C98.6 55.3003 99.5 54.4003 99.5 53.3003V49.3003C99.5 49.2433 99.488 49.1903 99.483 49.1343C99.488 49.0223 99.5 48.9133 99.5 48.8003Z" fill="#EEAF4B"/>
<path d="M53.5 55.3003C52.479 55.3003 51.639 54.5213 51.523 53.5303C48.882 54.0303 47 55.3033 47 56.8003C47 58.7333 50.134 60.3003 54 60.3003C57.866 60.3003 61 58.7333 61 56.8003C61 56.2623 60.75 55.7553 60.317 55.3003H53.5Z" fill="#7A3726"/>
<path d="M60.298 55.3003C60.735 55.7563 61 56.2603 61 56.8003C61 57.6163 60.437 58.3653 59.5 58.9603C60.782 59.7753 62.766 60.3003 65 60.3003C68.866 60.3003 72 58.7333 72 56.8003C72 56.2623 71.75 55.7553 71.317 55.3003H60.298Z" fill="#C56458"/>
<path d="M71.305 55.3003C71.742 55.7553 72 56.2613 72 56.8003C72 57.4583 71.631 58.0703 71 58.5963C72.223 59.6153 74.449 60.3003 77 60.3003C80.866 60.3003 84 58.7333 84 56.8003C84 56.2623 83.75 55.7553 83.317 55.3003H71.305Z" fill="#7A3726"/>
<path d="M58 64.3003C58.5523 64.3003 59 63.8526 59 63.3003C59 62.748 58.5523 62.3003 58 62.3003C57.4477 62.3003 57 62.748 57 63.3003C57 63.8526 57.4477 64.3003 58 64.3003Z" fill="#FBD490"/>
<path d="M67 64.3003C67.5523 64.3003 68 63.8526 68 63.3003C68 62.748 67.5523 62.3003 67 62.3003C66.4477 62.3003 66 62.748 66 63.3003C66 63.8526 66.4477 64.3003 67 64.3003Z" fill="#FBD490"/>
<path d="M74 64.3003C74.5523 64.3003 75 63.8526 75 63.3003C75 62.748 74.5523 62.3003 74 62.3003C73.4477 62.3003 73 62.748 73 63.3003C73 63.8526 73.4477 64.3003 74 64.3003Z" fill="#FBD490"/>
<path d="M62.9209 50.7002C62.3679 50.7002 61.9209 50.2532 61.9209 49.7002C61.9209 45.0132 65.7339 41.2002 70.4209 41.2002C70.9739 41.2002 71.4209 41.6472 71.4209 42.2002C71.4209 42.7532 70.9739 43.2002 70.4209 43.2002C66.8369 43.2002 63.9209 46.1162 63.9209 49.7002C63.9209 50.2532 63.4739 50.7002 62.9209 50.7002Z" fill="#FBD490"/>
<path d="M73.5 50.7974C72.947 50.7974 72.5 50.3504 72.5 49.7974C72.5 45.1104 76.313 41.2974 81 41.2974C81.553 41.2974 82 41.7444 82 42.2974C82 42.8504 81.553 43.2974 81 43.2974C77.416 43.2974 74.5 46.2134 74.5 49.7974C74.5 50.3504 74.053 50.7974 73.5 50.7974Z" fill="#FBD490"/>
<path d="M61.5 53.3003C61.3 53.3003 61.108 53.3183 60.922 53.3443C60.728 52.7403 60.168 52.3003 59.5 52.3003C59.302 52.3003 59.115 52.3403 58.942 52.4103C58.769 51.7723 58.192 51.3003 57.5 51.3003C56.822 51.3003 56.255 51.7533 56.07 52.3713C55.886 52.3283 55.697 52.3003 55.5 52.3003C54.967 52.3003 54.475 52.4703 54.069 52.7543C53.639 52.4743 53.098 52.3003 52.5 52.3003C51.119 52.3003 50 53.1953 50 54.3003C50 55.4043 51.119 56.3003 52.5 56.3003C52.821 56.3003 53.125 56.2473 53.406 56.1593C53.852 56.8443 54.621 57.3003 55.5 57.3003C55.988 57.3003 56.441 57.1543 56.826 56.9123C57.156 57.1533 57.56 57.3003 58 57.3003C58.88 57.3003 59.62 56.7273 59.887 55.9373C60.323 56.1603 60.882 56.3003 61.5 56.3003C62.881 56.3003 64 55.6283 64 54.8003C64 53.9723 62.881 53.3003 61.5 53.3003Z" fill="#88C057"/>
<path d="M73.5 53.3003C73.3 53.3003 73.108 53.3183 72.922 53.3443C72.728 52.7403 72.168 52.3003 71.5 52.3003C71.302 52.3003 71.115 52.3403 70.942 52.4103C70.769 51.7723 70.192 51.3003 69.5 51.3003C68.822 51.3003 68.255 51.7533 68.07 52.3713C67.886 52.3283 67.697 52.3003 67.5 52.3003C66.967 52.3003 66.475 52.4703 66.069 52.7543C65.639 52.4743 65.098 52.3003 64.5 52.3003C63.119 52.3003 62 53.1953 62 54.3003C62 55.4043 63.119 56.3003 64.5 56.3003C64.821 56.3003 65.125 56.2473 65.406 56.1593C65.852 56.8443 66.621 57.3003 67.5 57.3003C67.988 57.3003 68.441 57.1543 68.826 56.9123C69.156 57.1533 69.56 57.3003 70 57.3003C70.88 57.3003 71.62 56.7273 71.887 55.9373C72.323 56.1603 72.882 56.3003 73.5 56.3003C74.881 56.3003 76 55.6283 76 54.8003C76 53.9723 74.881 53.3003 73.5 53.3003Z" fill="#88C057"/>
<path d="M86.5 53.3003C86.3 53.3003 86.108 53.3183 85.922 53.3443C85.728 52.7403 85.168 52.3003 84.5 52.3003C84.302 52.3003 84.115 52.3403 83.942 52.4103C83.769 51.7723 83.192 51.3003 82.5 51.3003C81.822 51.3003 81.255 51.7533 81.07 52.3713C80.886 52.3283 80.697 52.3003 80.5 52.3003C79.967 52.3003 79.475 52.4703 79.069 52.7543C78.639 52.4743 78.098 52.3003 77.5 52.3003C76.119 52.3003 75 53.1953 75 54.3003C75 55.4043 76.119 56.3003 77.5 56.3003C77.821 56.3003 78.125 56.2473 78.406 56.1593C78.852 56.8443 79.621 57.3003 80.5 57.3003C80.988 57.3003 81.441 57.1543 81.826 56.9123C82.156 57.1533 82.56 57.3003 83 57.3003C83.88 57.3003 84.62 56.7273 84.887 55.9373C85.323 56.1603 85.882 56.3003 86.5 56.3003C87.881 56.3003 89 55.6283 89 54.8003C89 53.9723 87.881 53.3003 86.5 53.3003Z" fill="#88C057"/>
</g>
</g>
<g clip-path="url(#clip2)">
<path d="M43.5014 64.5314C44.1657 64.8272 44.8773 64.9793 45.5941 64.9998H22.58C25.1104 64.9998 16.1414 40.2531 16.1414 40.2531L14.7368 20.7871H45.8696C45.8696 20.7871 45.5028 27.2966 44.9873 34.5009C44.8419 36.531 44.6847 38.6152 44.5207 40.625C44.5156 40.6858 44.5106 40.7484 44.5055 40.8092C44.0981 45.7737 43.6484 50.2548 43.231 52.2867C41.9565 58.4852 42.7323 64.1782 43.4389 64.5027C43.4591 64.5128 43.4811 64.5213 43.5014 64.5314Z" fill="#81C7F5"/>
<path d="M43.4906 64.5593C43.511 64.5683 43.533 64.5758 43.5534 64.5848C43.4076 64.6178 43.2634 64.6567 43.121 64.7018C42.6581 64.8457 42.1816 64.9387 41.6983 64.9791C41.5439 64.9926 41.3879 65 41.2319 65H41.0182C40.2772 64.982 39.5412 64.8381 38.8561 64.5592C37.1807 63.88 35.8361 62.6283 35.1814 61.0301L32.9905 55.669C30.5808 49.7711 35.5239 43.5449 42.6172 43.5449H44.5606C44.1519 47.948 43.7008 51.9224 43.282 53.7245C42.0034 59.2222 42.7819 64.2715 43.4906 64.5593Z" fill="#6AC0F8"/>
<path d="M24.7407 20.7866H14.7368L17.8952 64.9993H25.5012L24.7407 20.7866Z" fill="#6AC0F8"/>
<path d="M40.862 15.0191L38.3647 14.5811L40.3847 3.06171C40.5883 1.90009 41.3093 0.929656 42.3624 0.398863C43.4155 -0.131929 44.6242 -0.133579 45.679 0.393785L53.7175 4.41288L52.5835 6.68077L44.545 2.66143C44.2136 2.49575 43.834 2.49639 43.5034 2.66308C43.1726 2.82977 42.9461 3.13471 42.8823 3.49945L40.862 15.0191Z" fill="#F95428"/>
<path d="M45.8699 21.8012V21.7995H14.7371V21.8012H12.0444L13.6011 13.5522H47.0074L48.5626 21.8012H45.8699Z" fill="#E6E6E6"/>
<path d="M22.9759 13.5522L22.205 21.7995V21.8012L14.7371 21.7995H12.8861V21.8012H12.0444L13.6011 13.5522H22.9759Z" fill="#CCCCCC"/>
<g clip-path="url(#clip3)">
<path d="M59.1262 56.6546C58.1604 56.2905 57.4249 55.4797 57.1586 54.4861C56.9436 53.6839 57.0464 52.841 57.4479 52.1123C57.6416 51.7606 57.6217 51.33 57.3963 50.9977C57.171 50.6654 56.7789 50.4876 56.38 50.5375C56.2472 50.5541 56.1118 50.5626 55.9779 50.5626C55.1223 50.5626 54.3184 50.2299 53.7142 49.6256C53.0105 48.922 52.6781 47.9503 52.8023 46.9598C52.8522 46.5613 52.6744 46.1688 52.3421 45.9434C52.0098 45.7181 51.5792 45.6982 51.2276 45.8919C50.5074 46.2887 49.6505 46.3947 48.8539 46.1811C47.8601 45.9148 47.0494 45.1794 46.6852 44.2136C46.4919 43.7011 45.942 43.418 45.4129 43.5582C43.4188 44.0863 41.5901 45.1399 40.1244 46.6057C35.5451 51.185 35.5451 58.6362 40.1244 63.2154C42.3424 65.4335 45.2918 66.6552 48.4292 66.6555C48.4296 66.6555 48.4299 66.6555 48.4303 66.6555C51.5669 66.6555 54.5161 65.4338 56.7343 63.2155C58.1999 61.7499 59.2536 59.9213 59.7817 57.927C59.9218 57.3975 59.6387 56.8479 59.1262 56.6546Z" fill="#F4D8AA"/>
<path d="M61.012 54.4685C60.7315 54.4685 60.456 54.3545 60.2575 54.1552C60.0588 53.9566 59.9443 53.6819 59.9443 53.4007C59.9443 53.1195 60.0589 52.8448 60.2575 52.6455C60.4561 52.4469 60.7315 52.333 61.012 52.333C61.2931 52.333 61.5686 52.4469 61.7672 52.6455C61.9658 52.8441 62.0804 53.1196 62.0804 53.4007C62.0804 53.6818 61.9658 53.9566 61.7672 54.1552C61.5687 54.3545 61.2932 54.4685 61.012 54.4685Z" fill="#B6731B"/>
<path d="M49.4359 43.8982C49.1548 43.8982 48.88 43.7843 48.6807 43.5856C48.4821 43.3871 48.3682 43.1116 48.3682 42.8304C48.3682 42.5493 48.4821 42.2744 48.6807 42.0759C48.8794 41.8773 49.1548 41.7627 49.4359 41.7627C49.7171 41.7627 49.9926 41.8772 50.1911 42.0759C50.3898 42.2744 50.5036 42.5499 50.5036 42.8304C50.5036 43.1115 50.3897 43.3871 50.1911 43.5856C49.9918 43.7843 49.7171 43.8982 49.4359 43.8982Z" fill="#B6731B"/>
<path d="M55.9788 48.4282C55.6984 48.4282 55.4229 48.3142 55.2243 48.1157C55.0256 47.9171 54.9111 47.6416 54.9111 47.3605C54.9111 47.08 55.0256 46.8045 55.2243 46.6059C55.4229 46.4074 55.6976 46.2935 55.9788 46.2935C56.2607 46.2935 56.5354 46.4074 56.734 46.6059C56.9326 46.8045 57.0472 47.0799 57.0472 47.3605C57.0472 47.6416 56.9326 47.9171 56.734 48.1157C56.5355 48.3142 56.26 48.4282 55.9788 48.4282Z" fill="#B6731B"/>
<path d="M50.3861 56.8688C50.1049 56.8688 49.83 56.7548 49.6308 56.5563C49.4322 56.357 49.3184 56.0822 49.3184 55.8011C49.3184 55.5199 49.4323 55.2445 49.6308 55.0459C49.8301 54.8474 50.1049 54.7334 50.3861 54.7334C50.6672 54.7334 50.942 54.8474 51.1413 55.0459C51.3398 55.2445 51.4538 55.52 51.4538 55.8011C51.4538 56.0823 51.3398 56.357 51.1413 56.5563C50.942 56.7548 50.6672 56.8688 50.3861 56.8688Z" fill="#B6731B"/>
<path d="M47.5389 52.5978C47.2577 52.5978 46.9822 52.4838 46.7837 52.2847C46.5851 52.086 46.4712 51.8113 46.4712 51.5301C46.4712 51.2489 46.5851 50.9735 46.7837 50.7749C46.9823 50.5764 47.2578 50.4624 47.5389 50.4624C47.82 50.4624 48.0948 50.5763 48.2941 50.7749C48.4926 50.9735 48.6066 51.249 48.6066 51.5301C48.6066 51.8112 48.4926 52.086 48.2941 52.2847C48.0948 52.4838 47.82 52.5978 47.5389 52.5978Z" fill="#B6731B"/>
<path d="M42.556 54.7335C42.2748 54.7335 42 54.6196 41.8008 54.4211C41.6021 54.2217 41.4883 53.947 41.4883 53.6658C41.4883 53.3847 41.6022 53.1093 41.8008 52.9106C42.0001 52.7121 42.2748 52.5981 42.556 52.5981C42.8372 52.5981 43.1126 52.7121 43.3112 52.9106C43.5097 53.1093 43.6237 53.3847 43.6237 53.6658C43.6237 53.947 43.5097 54.2218 43.3112 54.4211C43.1126 54.6196 42.8372 54.7335 42.556 54.7335Z" fill="#B6731B"/>
<path d="M50.3861 61.8517C50.1049 61.8517 49.83 61.7377 49.6308 61.5392C49.4322 61.3399 49.3184 61.0651 49.3184 60.784C49.3184 60.5029 49.4323 60.2274 49.6308 60.0288C49.8294 59.8303 50.1049 59.7163 50.3861 59.7163C50.6672 59.7163 50.9427 59.8302 51.1413 60.0288C51.3398 60.2274 51.4538 60.5028 51.4538 60.784C51.4538 61.0652 51.3398 61.3399 51.1413 61.5392C50.942 61.7377 50.6672 61.8517 50.3861 61.8517Z" fill="#B6731B"/>
<path d="M45.4031 59.716C45.122 59.716 44.8471 59.602 44.6479 59.4035C44.4493 59.2041 44.3354 58.9294 44.3354 58.6483C44.3354 58.3671 44.4494 58.0917 44.6479 57.893C44.8472 57.6945 45.122 57.5806 45.4031 57.5806C45.6843 57.5806 45.9591 57.6945 46.1584 57.893C46.3569 58.0917 46.4708 58.3671 46.4708 58.6483C46.4708 58.9295 46.3569 59.2042 46.1584 59.4035C45.9598 59.602 45.6843 59.716 45.4031 59.716Z" fill="#B6731B"/>
</g>
<path d="M17.5607 43.9751C17.5037 45.588 15.4883 46.8869 13 46.8869C10.5117 46.8869 8.49631 45.588 8.4393 43.9751H3.61033C3.44846 43.9751 3.29322 44.0428 3.17876 44.1632C3.0643 44.2837 3 44.4471 3 44.6175V61.8445C3 62.1843 3.12825 62.5102 3.35654 62.7504C3.58483 62.9907 3.89445 63.1257 4.2173 63.1257H21.7827C22.1055 63.1257 22.4152 62.9907 22.6435 62.7504C22.8717 62.5102 23 62.1843 23 61.8445V44.6175C23 44.4471 22.9357 44.2837 22.8212 44.1632C22.7068 44.0428 22.5515 43.9751 22.3897 43.9751H17.5607Z" fill="#BD3B30"/>
<path d="M20.8268 36.6553H18.2178V48.1082H20.8268V36.6553Z" fill="#FFC326"/>
<path d="M19.5223 36.6553H18.2178V48.1082H19.5223V36.6553Z" fill="#FEA705"/>
<path d="M18.2179 35H15.6089V46.4529H18.2179V35Z" fill="#FFC326"/>
<path d="M16.9134 35H15.6089V46.4529H16.9134V35Z" fill="#FEA705"/>
<path d="M15.609 36.0869H13V47.5399H15.609V36.0869Z" fill="#FFC326"/>
<path d="M14.3045 36.0869H13V47.5399H14.3045V36.0869Z" fill="#FEA705"/>
<path d="M13.0001 37.0786H10.3911V48.5316H13.0001V37.0786Z" fill="#FFC326"/>
<path d="M11.6956 37.0786H10.3911V48.5316H11.6956V37.0786Z" fill="#FEA705"/>
<path d="M22.1315 39.8989H19.5225V51.3519H22.1315V39.8989Z" fill="#FFCD4D"/>
<path d="M20.827 39.8989H19.5225V51.3519H20.827V39.8989Z" fill="#FEA705"/>
<path d="M19.5226 40.5269H16.9136V51.9798H19.5226V40.5269Z" fill="#FFCD4D"/>
<path d="M18.2181 40.5269H16.9136V51.9798H18.2181V40.5269Z" fill="#FEA705"/>
<path d="M16.9137 39.1611H14.3047V50.6141H16.9137V39.1611Z" fill="#FFCD4D"/>
<path d="M15.6092 39.1611H14.3047V50.6141H15.6092V39.1611Z" fill="#FEA705"/>
<path d="M14.3043 40.5269H11.6953V51.9798H14.3043V40.5269Z" fill="#FFCD4D"/>
<path d="M12.9998 40.5269H11.6953V51.9798H12.9998V40.5269Z" fill="#FEA705"/>
<path d="M10.3912 35H7.78223V46.4529H10.3912V35Z" fill="#FFC42E"/>
<path d="M9.08672 35H7.78223V46.4529H9.08672V35Z" fill="#FEA705"/>
<path d="M7.78184 36.0869H5.17285V47.5399H7.78184V36.0869Z" fill="#FFC326"/>
<path d="M6.47734 36.0869H5.17285V47.5399H6.47734V36.0869Z" fill="#FEA705"/>
<path d="M11.6954 37.9365H9.08643V49.3895H11.6954V37.9365Z" fill="#FFCD4D"/>
<path d="M10.3909 37.9365H9.08643V49.3895H10.3909V37.9365Z" fill="#FEA705"/>
<path d="M9.08653 40.5269H6.47754V51.9798H9.08653V40.5269Z" fill="#FFCD4D"/>
<path d="M7.78203 40.5269H6.47754V51.9798H7.78203V40.5269Z" fill="#FEA705"/>
<path d="M6.47764 39.1611H3.86865V50.6141H6.47764V39.1611Z" fill="#FFCD4D"/>
<path d="M5.17315 39.1611H3.86865V50.6141H5.17315V39.1611Z" fill="#FEA705"/>
<path d="M22.8055 51.8144H3.15431L3.104 50.4873H22.8592L22.8055 51.8144Z" fill="#E6E7E8"/>
<path d="M17.5607 45.8496C17.5037 47.4626 15.4883 48.7614 13 48.7614C10.5117 48.7614 8.49631 47.4661 8.4393 45.8496H3.61033C3.44846 45.8496 3.29322 45.9173 3.17876 46.0378C3.0643 46.1582 3 46.3216 3 46.492V63.719C3 64.0588 3.12825 64.3847 3.35654 64.6249C3.58483 64.8652 3.89445 65.0002 4.2173 65.0002H21.7827C22.1055 65.0002 22.4152 64.8652 22.6435 64.6249C22.8717 64.3847 23 64.0588 23 63.719V46.492C23 46.3216 22.9357 46.1582 22.8212 46.0378C22.7068 45.9173 22.5515 45.8496 22.3897 45.8496H17.5607Z" fill="#EA392B"/>
</g>
<defs>
<clipPath id="clip0">
<rect width="60" height="60" fill="white" transform="translate(16 4)"/>
</clipPath>
<clipPath id="clip1">
<rect width="57.5" height="57.5" fill="white" transform="translate(47 26)"/>
</clipPath>
<clipPath id="clip2">
<rect width="65" height="65" fill="white"/>
</clipPath>
<clipPath id="clip3">
<rect width="25.3907" height="25.3907" fill="white" transform="translate(36.6895 41.5137)"/>
</clipPath>
</defs>
</svg>
