<svg width="70" height="70" viewBox="0 0 70 70" fill="none" xmlns="http://www.w3.org/2000/svg">
<path d="M68.8332 35V37.3333C68.8332 38.6167 67.7645 39.6667 66.459 39.6667H3.54067C2.23517 39.6667 1.1665 38.6167 1.1665 37.3333V35H68.8332Z" fill="#BD852D"/>
<path d="M5.83317 37.3333V35H1.1665V37.3333C1.1665 38.6167 2.2165 39.6667 3.49984 39.6667H8.1665C6.88317 39.6667 5.83317 38.6167 5.83317 37.3333Z" fill="#CA9D57"/>
<path d="M62.3117 25.1883C62.7433 25.6083 63 26.1917 63 26.8333C63 28.1167 61.95 29.1667 60.6667 29.1667H57.1667L54.775 35H16.4267L12.8333 29.1667H9.33333C8.05 29.1667 7 28.1167 7 26.8333C7 25.55 8.05 24.5 9.33333 24.5H60.6667C61.3083 24.5 61.8917 24.7567 62.3117 25.1883Z" fill="#E6E6E6"/>
<path d="M14 29.1667C12.7167 29.1667 11.6667 28.1167 11.6667 26.8333C11.6667 25.55 12.7167 24.5 14 24.5H9.33333C8.05 24.5 7 25.55 7 26.8333C7 28.1167 8.05 29.1667 9.33333 29.1667H12.8333L16.4267 35H21.0933L17.5 29.1667H14Z" fill="#E4DADA"/>
<path d="M59.5 23.9165H45.5H31.5C31.5 16.1815 37.765 9.9165 45.5 9.9165C53.235 9.9165 59.5 16.1815 59.5 23.9165Z" fill="#F7BD63"/>
<path d="M45.5 14.5833C51.814 14.5833 57.1445 18.6667 58.8922 24.5H59.5C59.5 16.3333 53.235 10.5 45.5 10.5C37.765 10.5 31.5 16.3333 31.5 24.5H32.1078C33.8555 18.6667 39.186 14.5833 45.5 14.5833Z" fill="#FFD89A"/>
<path d="M43.1667 19.8333C43.811 19.8333 44.3333 19.311 44.3333 18.6667C44.3333 18.0223 43.811 17.5 43.1667 17.5C42.5223 17.5 42 18.0223 42 18.6667C42 19.311 42.5223 19.8333 43.1667 19.8333Z" fill="#FEF0D8"/>
<path d="M47.8332 16.3333C48.4775 16.3333 48.9998 15.811 48.9998 15.1667C48.9998 14.5223 48.4775 14 47.8332 14C47.1888 14 46.6665 14.5223 46.6665 15.1667C46.6665 15.811 47.1888 16.3333 47.8332 16.3333Z" fill="#FEF0D8"/>
<path d="M36.1665 23.9165H11.6665C11.6665 17.1498 17.1498 11.6665 23.9165 11.6665C30.6832 11.6665 36.1665 17.1498 36.1665 23.9165Z" fill="#FEDDE0"/>
<path d="M26.2498 14.2916C29.0382 14.2916 31.599 15.0872 33.657 16.6552C31.4193 13.7176 27.8948 12.0317 23.9165 12.0317C17.1498 12.0306 11.6665 17.4999 11.6665 24.4999H14.2273C15.3182 18.6666 20.2823 14.2916 26.2498 14.2916Z" fill="#FEEBEC"/>
<path d="M30.3333 23.9167H17.5C17.5 20.37 20.37 17.5 23.9167 17.5C27.4633 17.5 30.3333 20.37 30.3333 23.9167Z" fill="#F85766"/>
</svg>
