<svg width="60" height="60" viewBox="0 0 60 60" fill="none" xmlns="http://www.w3.org/2000/svg">
<g clip-path="url(#clip0)">
<path d="M50.4893 26.6258C50.4912 25.0834 50.9282 23.5724 51.7508 22.2636C52.5734 20.9549 53.7488 19.9007 55.1441 19.2204C54.4809 17.9257 54.359 16.4238 54.8049 15.0406C55.2508 13.6573 56.2285 12.5043 57.526 11.8317L58.9517 5.88246C59.1171 5.19182 59.0964 4.47014 58.8916 3.78998C58.6867 3.10982 58.305 2.49513 57.7848 2.00772C57.2646 1.5203 56.6243 1.17733 55.9281 1.01328C55.2319 0.849224 54.5045 0.86987 53.8189 1.07314L30.4278 8.02086L3.8497 15.8922C2.83602 16.1942 1.98008 16.8747 1.46224 17.7905C0.944387 18.7062 0.805067 19.7857 1.07363 20.8013C3.41358 29.6961 12.1024 51.4212 41.9766 58.9431C42.5022 59.0782 43.0496 59.1079 43.5869 59.0302C44.1241 58.9526 44.6403 58.7693 45.1051 58.491C45.57 58.2128 45.9741 57.8452 46.2938 57.4099C46.6135 56.9745 46.8423 56.4802 46.9668 55.956L52.6699 32.1923C51.2661 30.6731 50.488 28.6867 50.4893 26.6258Z" fill="#FFDC9F"/>
<path d="M32.4744 33.8148C31.0246 33.7619 29.633 33.2354 28.5158 32.3171C28.3291 32.1537 28.2154 31.9235 28.1996 31.6769C28.1839 31.4304 28.2675 31.1878 28.432 31.0024C28.5128 30.9109 28.611 30.8362 28.721 30.7825C28.831 30.7288 28.9506 30.6971 29.0729 30.6894C29.1953 30.6817 29.3179 30.698 29.4339 30.7374C29.5499 30.7769 29.6569 30.8386 29.7487 30.9192C30.625 31.6252 31.7326 31.9865 32.8602 31.9343C33.4654 31.8267 34.0413 31.5949 34.5511 31.2539C35.0609 30.913 35.4933 30.4702 35.8208 29.954C35.8886 29.844 35.9787 29.7491 36.0854 29.6754C36.1921 29.6017 36.313 29.5508 36.4406 29.5259C36.5681 29.501 36.6994 29.5025 36.8263 29.5306C36.9532 29.5586 37.0728 29.6125 37.1777 29.6887C37.2825 29.765 37.3702 29.862 37.4353 29.9736C37.5004 30.0853 37.5414 30.2091 37.5558 30.3372C37.5701 30.4654 37.5575 30.5951 37.5187 30.7182C37.48 30.8413 37.4158 30.9551 37.3305 31.0523C36.8576 31.7933 36.2292 32.4244 35.4882 32.9025C34.7471 33.3807 33.9108 33.6947 33.0364 33.8231C32.8491 33.8325 32.6614 33.8297 32.4744 33.8148Z" fill="#91AF77"/>
<path d="M25.245 15.5179C24.8794 15.2746 24.4886 15.071 24.0792 14.9105C22.6706 14.3806 21.1127 14.3953 19.7145 14.9517C18.3164 15.5081 17.18 16.5655 16.531 17.9142C16.1466 18.7303 15.9565 19.6231 15.9754 20.5236C15.9943 21.4242 16.2217 22.3084 16.64 23.1078C17.0583 23.9073 17.6564 24.6006 18.3879 25.1341C19.1194 25.6677 19.9647 26.0272 20.8586 26.1849C21.1714 26.2365 21.4926 26.1826 21.7708 26.0317C22.0491 25.8809 22.2683 25.6419 22.3934 25.3529L25.8572 17.648C26.0223 17.2779 26.0514 16.8622 25.9396 16.473C25.8277 16.0839 25.582 15.7459 25.245 15.5179Z" fill="white"/>
<path d="M25.9494 15.8089C25.5838 15.5608 25.1896 15.3569 24.7752 15.2015C23.367 14.6676 21.8075 14.6803 20.4083 15.2371C19.0091 15.7939 17.873 16.8538 17.227 18.2052C16.8951 18.9128 16.7084 19.6789 16.6778 20.4587C16.6472 21.2386 16.7734 22.0167 17.0489 22.7478C17.3245 23.4788 17.7439 24.1481 18.2828 24.7168C18.8216 25.2854 19.4691 25.742 20.1876 26.0599C20.6258 26.2499 21.0845 26.3894 21.5547 26.4759C21.8672 26.5246 22.1871 26.4693 22.4647 26.3189C22.7423 26.1684 22.962 25.931 23.0895 25.6438L26.5533 17.939C26.7191 17.5698 26.7496 17.1547 26.6393 16.7657C26.529 16.3766 26.2849 16.0381 25.9494 15.8089Z" fill="#FFF4D1"/>
<path d="M19.6689 18.6444L19.1016 19.9057C18.758 20.6694 19.1036 21.5649 19.8734 21.9057L27.2795 25.1848C28.0493 25.5256 28.9519 25.1828 29.2955 24.419L29.8629 23.1577C30.2064 22.3939 29.8609 21.4985 29.091 21.1577L21.6849 17.8786C20.9151 17.5378 20.0125 17.8806 19.6689 18.6444Z" fill="#FFF4D1"/>
<g style="mix-blend-mode:multiply" opacity="0.5">
<path d="M16.103 12.2642L3.8497 15.892C2.83602 16.1939 1.98008 16.8745 1.46224 17.7903C0.944387 18.706 0.805067 19.7855 1.07363 20.8011C3.41358 29.6959 12.1024 51.421 41.9766 58.9428C42.5022 59.078 43.0496 59.1076 43.5869 59.03C44.1241 58.9524 44.6403 58.7691 45.1051 58.4908C45.57 58.2125 45.9741 57.845 46.2938 57.4096C46.6135 56.9743 46.8423 56.48 46.9668 55.9557L49.9777 43.4082C28.893 36.3524 19.8771 21.8495 16.103 12.2642Z" fill="#DD8136"/>
</g>
<path d="M47.235 32.833C45.9694 32.833 44.7556 33.3318 43.8606 34.2197C42.9657 35.1076 42.4629 36.3118 42.4629 37.5674C42.4629 38.8231 42.9657 40.0273 43.8606 40.9152C44.7556 41.8031 45.9694 42.3019 47.235 42.3019C47.9757 42.3026 48.7058 42.1286 49.3653 41.7943L51.0427 34.7468C50.6027 34.155 50.0291 33.6737 49.3679 33.3413C48.7067 33.009 47.9763 32.8349 47.235 32.833Z" fill="white"/>
<path d="M47.868 21.0341C48.5295 16.9228 45.7064 13.0578 41.5623 12.4015C37.4182 11.7452 33.5225 14.546 32.8609 18.6573C32.1994 22.7687 35.0225 26.6336 39.1666 27.2899C43.3107 27.9463 47.2064 25.1454 47.868 21.0341Z" fill="white"/>
<path d="M15.6165 25.0364C13.5011 21.5301 11.8119 17.7874 10.5844 13.8867L3.8497 15.892C2.83602 16.194 1.98008 16.8745 1.46224 17.7903C0.944387 18.7061 0.805067 19.7855 1.07363 20.8012C3.41358 29.6959 12.1024 51.421 41.9766 58.9429C42.5022 59.078 43.0496 59.1077 43.5869 59.03C44.1241 58.9524 44.6403 58.7691 45.1051 58.4908C45.57 58.2126 45.9741 57.845 46.2938 57.4097C46.6135 56.9743 46.8423 56.48 46.9668 55.9558L48.5436 49.3825C39.8128 47.0091 31.7661 42.6342 25.0518 36.6103" fill="#FFB77B"/>
<path d="M32.7678 15.7505H32.7091C31.825 15.7502 30.9513 15.5605 30.148 15.1943C29.3446 14.8281 28.6304 14.294 28.0543 13.6287C27.0653 12.3114 26.6294 10.6652 26.8382 9.03574C26.8887 8.80356 27.0266 8.59926 27.2238 8.46458C27.421 8.3299 27.6626 8.27502 27.8993 8.31113C28.1359 8.34725 28.3497 8.47164 28.497 8.6589C28.6443 8.84616 28.7139 9.08214 28.6917 9.31864C28.5641 10.4369 28.8633 11.5619 29.5304 12.4722C29.9494 12.9259 30.4605 13.2866 31.03 13.5304C31.5995 13.7742 32.2146 13.8956 32.8349 13.8867C33.084 13.8944 33.3198 14 33.4905 14.1802C33.6611 14.3604 33.7526 14.6005 33.7448 14.8477C33.7371 15.0949 33.6306 15.3288 33.449 15.4981C33.2673 15.6674 33.0253 15.7582 32.7762 15.7505H32.7678Z" fill="#91AF77"/>
<path d="M48.0994 33.2824C47.3713 33.2707 46.6503 33.4242 45.9911 33.7311C45.332 34.038 44.7522 34.4903 44.2961 35.0533C43.8399 35.6164 43.5194 36.2753 43.3591 36.98C43.1987 37.6846 43.2027 38.4163 43.3708 39.1191C43.5388 39.822 43.8665 40.4775 44.3288 41.0356C44.7911 41.5937 45.3757 42.0397 46.0382 42.3395C46.7006 42.6393 47.4234 42.785 48.1512 42.7655C48.8791 42.746 49.5929 42.5618 50.238 42.227L51.9154 35.1711C51.4701 34.5848 50.8937 34.109 50.2315 33.7812C49.5693 33.4534 48.8394 33.2827 48.0994 33.2824Z" fill="#FF6161"/>
<path d="M21.6135 33.1489C20.1509 31.5315 18.795 29.8222 17.5542 28.0317L21.6135 33.1489Z" fill="#F49845"/>
<path d="M43.3272 9.21881C45.3634 9.2188 47.3247 8.45738 48.8201 7.08638C50.3155 5.71539 51.2351 3.83556 51.3954 1.82178L36.9028 6.09858C37.6607 7.07272 38.6343 7.86082 39.7483 8.40188C40.8623 8.94294 42.0869 9.22246 43.3272 9.21881Z" fill="#FF6161"/>
<path d="M48.376 12.2226C48.1878 12.2241 48.0036 12.169 47.8476 12.0645C47.6419 11.9245 47.5002 11.7097 47.4531 11.4668C47.406 11.2238 47.4573 10.9722 47.596 10.7665C48.0482 10.0157 48.6558 9.36868 49.3786 8.86811C50.1015 8.36753 50.9232 8.02481 51.7895 7.86259C53.4317 7.7049 55.072 8.18177 56.3687 9.19389C56.4649 9.27046 56.5446 9.36538 56.6032 9.47304C56.6618 9.5807 56.698 9.69892 56.7097 9.8207C56.7214 9.94249 56.7084 10.0654 56.6715 10.1821C56.6345 10.2988 56.5743 10.407 56.4945 10.5002C56.336 10.6891 56.1087 10.8082 55.862 10.8316C55.6154 10.8549 55.3695 10.7807 55.1778 10.625C54.281 9.94812 53.1644 9.62232 52.0411 9.70977C51.4335 9.83927 50.8602 10.0944 50.3588 10.4586C49.8573 10.8228 49.4389 11.2877 49.1308 11.8232C49.0454 11.9438 48.9325 12.0428 48.8014 12.1122C48.6703 12.1816 48.5245 12.2194 48.376 12.2226Z" fill="#91AF77"/>
<path d="M48.7644 22.7878C49.764 18.7443 47.2703 14.6624 43.1945 13.6707C39.1188 12.679 35.0044 15.153 34.0048 19.1966C33.0052 23.2401 35.4989 27.322 39.5747 28.3137C43.6504 29.3054 47.7648 26.8314 48.7644 22.7878Z" fill="#FF6161"/>
<path d="M16.5726 40.8291C16.4415 40.8279 16.312 40.7999 16.1923 40.747C16.0725 40.694 15.965 40.6172 15.8765 40.5213C13.0481 37.3763 10.5394 33.9622 8.38693 30.3285C8.26015 30.1078 8.22691 29.8462 8.29455 29.6012C8.36218 29.3562 8.52514 29.1479 8.74757 29.0222C8.97001 28.8964 9.2337 28.8634 9.48064 28.9305C9.72757 28.9976 9.93753 29.1593 10.0643 29.38C12.1282 32.9071 14.5416 36.2213 17.2687 39.2732C17.3522 39.3634 17.4168 39.4692 17.4586 39.5845C17.5005 39.6997 17.5189 39.8221 17.5126 39.9444C17.5064 40.0668 17.4757 40.1867 17.4223 40.2971C17.3689 40.4076 17.2938 40.5064 17.2016 40.5878C17.0306 40.7449 16.8056 40.8312 16.5726 40.8291Z" fill="white"/>
<path d="M7.1372 27.025C6.96361 27.0264 6.79308 26.9796 6.64488 26.8899C6.49668 26.8002 6.37671 26.6712 6.29851 26.5174C5.24592 24.5151 4.30516 22.4568 3.48051 20.3519C3.43015 20.2355 3.40422 20.1102 3.4043 19.9836C3.40438 19.8569 3.43047 19.7316 3.48098 19.6154C3.53149 19.4991 3.60536 19.3942 3.69808 19.3072C3.7908 19.2202 3.90043 19.1528 4.02026 19.1092C4.1401 19.0656 4.26763 19.0467 4.39507 19.0536C4.52252 19.0606 4.6472 19.0932 4.76151 19.1495C4.87583 19.2059 4.97736 19.2847 5.05993 19.3813C5.1425 19.4779 5.20437 19.5901 5.24176 19.7112C6.03858 21.7455 6.94856 23.7344 7.96751 25.6687C8.07864 25.8907 8.09693 26.1473 8.0184 26.3825C7.93987 26.6178 7.77087 26.8128 7.54816 26.9251C7.41986 26.9869 7.27977 27.021 7.1372 27.025Z" fill="white"/>
</g>
<defs>
<clipPath id="clip0">
<rect width="60" height="60" fill="white"/>
</clipPath>
</defs>
</svg>
