<svg width="70" height="65" viewBox="0 0 70 65" fill="none" xmlns="http://www.w3.org/2000/svg">
<path d="M20.2822 33.1362L32.7223 62.6395C33.0798 63.4849 33.9181 64.0355 34.8481 64.0355C35.7779 64.0355 36.6166 63.4848 36.9738 62.6395L49.4442 33.1362H20.2822Z" fill="#F8D3A4"/>
<path d="M20.2822 33.1362L32.7223 62.6395C33.0798 63.4849 33.9181 64.0355 34.8481 64.0355C35.7779 64.0355 36.6166 63.4848 36.9738 62.6395L37.664 61.0065L25.9126 33.1362H20.2822Z" fill="#FDB85E"/>
<path d="M39.9095 40.7724L42.2163 42.9141L44.5226 40.7722L42.2158 38.6305L39.9095 40.7724Z" fill="#FDB85E"/>
<path d="M37.6044 45.871L39.9111 48.0127L42.2174 45.8709L39.9106 43.7292L37.6044 45.871Z" fill="#FDB85E"/>
<path d="M35.661 50.727L37.9678 52.8687L40.274 50.7268L37.9673 48.5851L35.661 50.727Z" fill="#FDB85E"/>
<path d="M34.0907 42.3236L36.3975 44.4653L38.7037 42.3235L36.3969 40.1818L34.0907 42.3236Z" fill="#FDB85E"/>
<path d="M44.2029 1.39841C39.9349 4.97493 31.8524 4.83909 31.8524 4.83909C27.6543 4.83769 24.2184 8.02599 24.2168 11.9241C24.2153 15.8223 27.6488 19.0128 31.8468 19.0143L38.7344 19.0166C40.5908 19.0172 42.2973 18.3934 43.6244 17.361C48.0834 14.5067 47.5684 7.35581 46.7729 2.95587C46.161 -0.273312 44.2029 1.39841 44.2029 1.39841Z" fill="#E4187A"/>
<path d="M38.5863 18.1825C35.1663 18.1814 32.2542 16.0634 31.2929 13.1708H36.5492C37.123 13.1708 37.588 12.7389 37.588 12.2062C37.588 11.6735 37.123 11.2416 36.5492 11.2416H30.9603C30.9592 11.1918 30.9563 11.1426 30.9563 11.0925C30.9574 8.18329 32.872 5.67025 35.5882 4.58252C33.4445 4.86537 31.8521 4.83884 31.8521 4.83884C27.654 4.83744 24.2182 8.02574 24.2168 11.924C24.2153 15.8222 27.6488 19.0126 31.8468 19.014L38.7344 19.0163C40.025 19.0167 41.2431 18.7147 42.3118 18.1839L38.5863 18.1825Z" fill="#C61469"/>
<path d="M41.1896 27.3499L29.1065 27.346C25.0122 27.3447 21.6635 24.2328 21.665 20.4311L21.6652 20.0808C21.6665 16.279 25.0178 13.1695 29.112 13.1709L41.195 13.1748C45.2894 13.1761 48.638 16.2879 48.6365 20.0897L48.6364 20.44C48.635 24.2419 45.2839 27.3513 41.1896 27.3499Z" fill="#EA3486"/>
<path d="M42.4095 22.3117H40.7966C40.2083 22.3117 39.7314 21.8689 39.7314 21.3226C39.7314 20.7763 40.2083 20.3335 40.7966 20.3335H42.4095C42.9978 20.3335 43.4747 20.7763 43.4747 21.3226C43.4747 21.8689 42.9978 22.3117 42.4095 22.3117Z" fill="#E4187A"/>
<path d="M36.6778 20.3825H28.4052L28.4054 20.0808C28.4067 16.3082 31.7071 13.219 35.7585 13.1731L29.1125 13.1709C25.0181 13.1696 21.6672 16.279 21.6657 20.0808L21.6655 20.4311C21.6642 24.233 25.0127 27.3446 29.107 27.346H35.8468C32.4541 27.3448 29.5755 25.2072 28.6886 22.3116H36.6779C37.2517 22.3116 37.7167 21.8798 37.7167 21.3471C37.7166 20.8144 37.2515 20.3825 36.6778 20.3825Z" fill="#E4187A"/>
<path d="M43.6305 36.4887L26.0899 36.4828C21.9956 36.4816 18.6469 33.3697 18.6484 29.5679L18.6486 29.2175C18.6501 25.4157 22.0012 22.3062 26.0954 22.3076L43.636 22.3135C47.7303 22.3149 51.0789 25.4266 51.0774 29.2283L51.0773 29.5786C51.0759 33.3806 47.7248 36.4902 43.6305 36.4887Z" fill="#F072AE"/>
<path d="M45.6363 32.9621C45.3247 32.9621 45.0168 32.8327 44.8123 32.5858C44.4625 32.1637 44.5472 31.558 45.0019 31.233C45.5618 30.8328 45.883 30.2293 45.8834 29.577C45.8836 29.0444 46.3486 28.6128 46.9221 28.6128C46.9223 28.6128 46.9224 28.6128 46.9226 28.6128C47.4962 28.613 47.9612 29.0451 47.9609 29.5778C47.9604 30.8332 47.3438 31.9938 46.2691 32.7619C46.0807 32.8967 45.8575 32.9621 45.6363 32.9621Z" fill="#EA3486"/>
<path d="M41.603 33.5941C41.6028 33.5941 41.6027 33.5941 41.6026 33.5941L31.415 33.5908C30.8412 33.5907 30.3763 33.1587 30.3765 32.626C30.3766 32.0934 30.8417 31.6616 31.4153 31.6616C31.4154 31.6616 31.4154 31.6616 31.4155 31.6616L41.6033 31.6649C42.1769 31.6652 42.6419 32.0971 42.6416 32.6299C42.6418 33.1623 42.1767 33.5941 41.603 33.5941Z" fill="#EA3486"/>
<path d="M25.3886 29.5625L25.3888 29.2122C25.3901 25.5148 28.5598 22.4731 32.5002 22.3101L26.0959 22.3081C22.0015 22.3068 18.6504 25.4162 18.6491 29.218L18.6489 29.5683C18.6476 33.3702 21.9961 36.4819 26.0904 36.4832L32.8302 36.4775C28.7358 36.4759 25.3871 33.3643 25.3886 29.5625Z" fill="#EA3486"/>
<path d="M31.0753 29.0162C32.0688 29.0162 32.8743 28.2683 32.8743 27.3457C32.8743 26.4232 32.0688 25.6753 31.0753 25.6753C30.0818 25.6753 29.2764 26.4232 29.2764 27.3457C29.2764 28.2683 30.0818 29.0162 31.0753 29.0162Z" fill="#FFEB99"/>
<path d="M42.4098 18.2452C43.4033 18.2452 44.2087 17.4973 44.2087 16.5747C44.2087 15.6522 43.4033 14.9043 42.4098 14.9043C41.4163 14.9043 40.6108 15.6522 40.6108 16.5747C40.6108 17.4973 41.4163 18.2452 42.4098 18.2452Z" fill="#FFEB99"/>
<path d="M37.4596 9.15975C38.4531 9.15975 39.2585 8.41186 39.2585 7.4893C39.2585 6.56673 38.4531 5.81885 37.4596 5.81885C36.4661 5.81885 35.6606 6.56673 35.6606 7.4893C35.6606 8.41186 36.4661 9.15975 37.4596 9.15975Z" fill="#FFEB99"/>
<path d="M35.6603 17.7583C36.364 17.7583 36.9344 17.2286 36.9344 16.5752C36.9344 15.9218 36.364 15.3921 35.6603 15.3921C34.9567 15.3921 34.3862 15.9218 34.3862 16.5752C34.3862 17.2286 34.9567 17.7583 35.6603 17.7583Z" fill="#9CDD05"/>
<path d="M36.7961 29.6718C37.4997 29.6718 38.0701 29.1421 38.0701 28.4887C38.0701 27.8353 37.4997 27.3057 36.7961 27.3057C36.0924 27.3057 35.522 27.8353 35.522 28.4887C35.522 29.1421 36.0924 29.6718 36.7961 29.6718Z" fill="#9CDD05"/>
<path d="M43.446 10.3432C44.1496 10.3432 44.72 9.81352 44.72 9.16013C44.72 8.50673 44.1496 7.97705 43.446 7.97705C42.7423 7.97705 42.1719 8.50673 42.1719 9.16013C42.1719 9.81352 42.7423 10.3432 43.446 10.3432Z" fill="#9CDD05"/>
</svg>
