<svg width="19" height="21" viewBox="0 0 19 21" fill="none" xmlns="http://www.w3.org/2000/svg">
<path d="M14.75 6.5C14.75 5.04131 14.1705 3.64236 13.1391 2.61091C12.1076 1.57946 10.7087 1 9.25 1C7.79131 1 6.39236 1.57946 5.36091 2.61091C4.32946 3.64236 3.75 5.04131 3.75 6.5C3.75 12.9167 1 14.75 1 14.75H17.5C17.5 14.75 14.75 12.9167 14.75 6.5Z" stroke="#F5F5F5" stroke-width="1.85" stroke-linecap="round" stroke-linejoin="round"/>
<path d="M10.8357 18.417C10.6746 18.6948 10.4433 18.9254 10.1649 19.0857C9.88662 19.246 9.57108 19.3304 9.2499 19.3304C8.92871 19.3304 8.61317 19.246 8.33485 19.0857C8.05654 18.9254 7.82522 18.6948 7.66406 18.417" stroke="#F5F5F5" stroke-width="1.85" stroke-linecap="round" stroke-linejoin="round"/>
</svg>
