<svg width="34" height="34" viewBox="0 0 34 34" fill="none" xmlns="http://www.w3.org/2000/svg">
<path d="M30.1 0H3.5C1.5701 0 0 1.5701 0 3.5V30.1C0 32.0299 1.5701 33.6 3.5 33.6H18.2V20.3H14V16.1H18.2V13.3C18.2 9.0545 21.6545 5.6 25.9 5.6H28V9.8H25.9C23.9701 9.8 22.4 11.3701 22.4 13.3V16.1H27.9069L27.3819 20.3H22.4V33.6H30.1C32.0299 33.6 33.6 32.0299 33.6 30.1V3.5C33.6 1.5701 32.0299 0 30.1 0ZM32.2 30.1C32.2 31.2578 31.2578 32.2 30.1 32.2H23.8V21.7H28.6181L29.4931 14.7H23.8V13.3C23.8 12.1422 24.7422 11.2 25.9 11.2H29.4V4.2H25.9C20.8824 4.2 16.8 8.2824 16.8 13.3V14.7H12.6V21.7H16.8V32.2H3.5C2.3422 32.2 1.4 31.2578 1.4 30.1V3.5C1.4 2.3422 2.3422 1.4 3.5 1.4H30.1C31.2578 1.4 32.2 2.3422 32.2 3.5V30.1Z" fill="#314E52"/>
</svg>
