<svg width="14" height="14" viewBox="0 0 14 14" fill="none" xmlns="http://www.w3.org/2000/svg">
<path d="M6.99984 12.8332C10.2215 12.8332 12.8332 10.2215 12.8332 6.99984C12.8332 3.77818 10.2215 1.1665 6.99984 1.1665C3.77818 1.1665 1.1665 3.77818 1.1665 6.99984C1.1665 10.2215 3.77818 12.8332 6.99984 12.8332Z" stroke="#314E52" stroke-width="1.5" stroke-linecap="round" stroke-linejoin="round"/>
<path d="M5.30273 5.24984C5.43988 4.85998 5.71057 4.53124 6.06687 4.32184C6.42318 4.11244 6.84209 4.03589 7.24942 4.10576C7.65675 4.17563 8.02621 4.3874 8.29236 4.70357C8.55851 5.01974 8.70418 5.4199 8.70357 5.83318C8.70357 6.99985 6.95357 7.58318 6.95357 7.58318" stroke="#314E52" stroke-width="1.5" stroke-linecap="round" stroke-linejoin="round"/>
<path d="M7 9.9165H7.0081" stroke="#314E52" stroke-width="1.5" stroke-linecap="round" stroke-linejoin="round"/>
</svg>
