<svg width="36" height="36" viewBox="0 0 36 36" fill="none" xmlns="http://www.w3.org/2000/svg">
<path d="M26 1H9.33333C4.73096 1 1 4.73096 1 9.33333V26C1 30.6024 4.73096 34.3333 9.33333 34.3333H26C30.6024 34.3333 34.3333 30.6024 34.3333 26V9.33333C34.3333 4.73096 30.6024 1 26 1Z" stroke="#314E52" stroke-width="1.5" stroke-linecap="round" stroke-linejoin="round"/>
<path d="M24.3315 16.6165C24.5372 18.0036 24.3003 19.4202 23.6545 20.6649C23.0086 21.9095 21.9868 22.9189 20.7343 23.5493C19.4817 24.1797 18.0623 24.3992 16.6779 24.1764C15.2934 23.9536 14.0145 23.3 13.0229 22.3085C12.0314 21.3169 11.3778 20.038 11.155 18.6535C10.9322 17.2691 11.1517 15.8497 11.7821 14.5971C12.4125 13.3446 13.4219 12.3228 14.6665 11.6769C15.9112 11.0311 17.3278 10.7942 18.7149 10.9999C20.1297 11.2097 21.4396 11.869 22.451 12.8804C23.4624 13.8918 24.1217 15.2016 24.3315 16.6165Z" stroke="#314E52" stroke-width="1.5" stroke-linecap="round" stroke-linejoin="round"/>
<path d="M26.832 8.5H26.8487" stroke="#314E52" stroke-width="2" stroke-linecap="round" stroke-linejoin="round"/>
</svg>
