<svg width="183" height="41" viewBox="0 0 183 41" fill="none" xmlns="http://www.w3.org/2000/svg">
<g clip-path="url(#clip0)">
<g filter="url(#filter0_d)">
<path d="M12.0805 32.7535C10.3221 32.7535 8.61797 32.5019 6.96817 31.9987C5.34006 31.4955 4.04842 30.8282 3.09326 29.9968L4.55856 26.6821C5.49201 27.4259 6.63167 28.0386 7.9776 28.5199C9.34522 28.9794 10.7128 29.2091 12.0805 29.2091C13.7737 29.2091 15.0327 28.9356 15.8577 28.3886C16.7043 27.8417 17.1276 27.1197 17.1276 26.2226C17.1276 25.5662 16.8888 25.0302 16.4112 24.6145C15.9554 24.1769 15.3692 23.8378 14.6529 23.5971C13.9365 23.3564 12.9596 23.083 11.7223 22.7766C9.98559 22.3609 8.5746 21.9452 7.48917 21.5295C6.42547 21.1138 5.50287 20.4684 4.72138 19.5932C3.96159 18.6961 3.5817 17.4928 3.5817 15.9831C3.5817 14.7142 3.91818 13.5655 4.59113 12.5372C5.28579 11.487 6.31693 10.6555 7.68454 10.0429C9.07385 9.43035 10.7671 9.12402 12.7643 9.12402C14.1536 9.12402 15.5212 9.29908 16.8671 9.64912C18.213 9.99917 19.3744 10.5024 20.3513 11.1588L19.0162 14.4735C18.0177 13.8827 16.9757 13.4342 15.8902 13.1279C14.8048 12.8216 13.752 12.6684 12.7317 12.6684C11.0601 12.6684 9.81197 12.9529 8.98703 13.5217C8.18385 14.0906 7.78223 14.8454 7.78223 15.7862C7.78223 16.4426 8.01017 16.9787 8.46604 17.3944C8.9436 17.81 9.54059 18.1382 10.257 18.3789C10.9733 18.6196 11.9502 18.8931 13.1876 19.1994C14.8808 19.5932 16.2701 20.0089 17.3555 20.4465C18.441 20.8622 19.3635 21.5077 20.1233 22.3828C20.9048 23.2579 21.2956 24.4394 21.2956 25.9272C21.2956 27.1962 20.9483 28.3449 20.2536 29.3732C19.5807 30.4015 18.5495 31.222 17.1602 31.8346C15.7709 32.4472 14.0776 32.7535 12.0805 32.7535Z" fill="#314E52"/>
</g>
<g filter="url(#filter1_d)">
<path d="M41.4844 9.45163H45.7175V28.8147H57.6353V32.4248H41.4844V9.45163ZM77.4253 14.8995V32.4248H73.5504V30.1603C72.877 30.9917 72.0415 31.6153 71.0431 32.0309C70.0662 32.4466 68.9806 32.6545 67.7869 32.6545C66.0936 32.6545 64.5738 32.2825 63.2278 31.5387C61.9037 30.7948 60.8617 29.7446 60.1019 28.3881C59.3638 27.0315 58.9947 25.4562 58.9947 23.6622C58.9947 21.8681 59.3638 20.3037 60.1019 18.9691C60.8617 17.6125 61.9037 16.5623 63.2278 15.8185C64.5738 15.0746 66.0936 14.7026 67.7869 14.7026C68.9155 14.7026 69.9464 14.8995 70.8803 15.2934C71.835 15.6872 72.6602 16.267 73.355 17.0328V14.8995H77.4253ZM68.2428 29.1429C69.7406 29.1429 70.978 28.6396 71.9549 27.6332C72.9317 26.6268 73.4202 25.3031 73.4202 23.6622C73.4202 22.0212 72.9317 20.6975 71.9549 19.6911C70.978 18.6847 69.7406 18.1814 68.2428 18.1814C66.7449 18.1814 65.5075 18.6847 64.5303 19.6911C63.5751 20.6975 63.0976 22.0212 63.0976 23.6622C63.0976 25.3031 63.5751 26.6268 64.5303 27.6332C65.5075 28.6396 66.7449 29.1429 68.2428 29.1429ZM92.6169 14.7026C94.8097 14.7026 96.568 15.348 97.892 16.6389C99.216 17.9298 99.8783 19.8442 99.8783 22.3822V32.4248H95.808V22.9073C95.808 21.3758 95.4498 20.2271 94.7335 19.4614C94.0171 18.6737 92.9966 18.2799 91.6726 18.2799C90.1748 18.2799 88.9914 18.7393 88.1233 19.6583C87.2552 20.5553 86.8208 21.8571 86.8208 23.5637V32.4248H82.7506V14.8995H86.6255V17.164C87.2982 16.3545 88.1448 15.7419 89.1653 15.3262C90.1858 14.9105 91.3359 14.7026 92.6169 14.7026ZM113.179 32.6545C111.377 32.6545 109.76 32.2716 108.327 31.5058C106.894 30.74 105.776 29.6789 104.973 28.3224C104.169 26.944 103.768 25.3906 103.768 23.6622C103.768 21.9337 104.169 20.3912 104.973 19.0347C105.776 17.6782 106.883 16.6171 108.294 15.8513C109.727 15.0855 111.355 14.7026 113.179 14.7026C114.893 14.7026 116.391 15.0527 117.672 15.7528C118.975 16.453 119.952 17.4594 120.603 18.7722L117.477 20.61C116.977 19.8005 116.348 19.1988 115.588 18.805C114.85 18.3893 114.036 18.1814 113.146 18.1814C111.626 18.1814 110.367 18.6847 109.369 19.6911C108.37 20.6756 107.871 21.9994 107.871 23.6622C107.871 25.3249 108.359 26.6596 109.336 27.666C110.335 28.6506 111.605 29.1429 113.146 29.1429C114.036 29.1429 114.85 28.946 115.588 28.5521C116.348 28.1365 116.977 27.5238 117.477 26.7143L120.603 28.5521C119.93 29.8649 118.942 30.8823 117.64 31.6043C116.359 32.3044 114.872 32.6545 113.179 32.6545ZM133.987 14.7026C136.18 14.7026 137.938 15.348 139.262 16.6389C140.587 17.9298 141.249 19.8442 141.249 22.3822V32.4248H137.178V22.9073C137.178 21.3758 136.82 20.2271 136.104 19.4614C135.387 18.6737 134.368 18.2799 133.043 18.2799C131.545 18.2799 130.362 18.7393 129.494 19.6583C128.626 20.5553 128.191 21.8571 128.191 23.5637V32.4248H124.121V8.07324H128.191V16.9343C128.865 16.2123 129.689 15.6653 130.666 15.2934C131.665 14.8995 132.772 14.7026 133.987 14.7026ZM154.683 29.1757C156.572 29.1757 158.145 28.5412 159.405 27.2722L161.554 29.7993C160.794 30.74 159.817 31.4512 158.623 31.9325C157.429 32.4138 156.083 32.6545 154.586 32.6545C152.675 32.6545 150.993 32.2716 149.538 31.5058C148.084 30.74 146.955 29.6789 146.152 28.3224C145.37 26.944 144.98 25.3906 144.98 23.6622C144.98 21.9556 145.359 20.4241 146.119 19.0675C146.901 17.6891 147.964 16.6171 149.31 15.8513C150.678 15.0855 152.219 14.7026 153.934 14.7026C155.562 14.7026 157.038 15.0636 158.363 15.7856C159.708 16.4858 160.772 17.5032 161.554 18.8378C162.335 20.1505 162.726 21.693 162.726 23.4652L149.408 26.0907C149.82 27.0972 150.483 27.863 151.394 28.3881C152.306 28.9132 153.402 29.1757 154.683 29.1757ZM153.934 17.9845C152.436 17.9845 151.221 18.4768 150.287 19.4614C149.376 20.4459 148.92 21.7696 148.92 23.4324V23.4652L158.754 21.5618C158.471 20.4897 157.896 19.6254 157.028 18.9691C156.181 18.3127 155.15 17.9845 153.934 17.9845ZM172.009 32.6545C170.598 32.6545 169.22 32.4685 167.874 32.0966C166.528 31.7246 165.454 31.2542 164.65 30.6854L166.213 27.5676C166.994 28.0927 167.928 28.5193 169.013 28.8475C170.12 29.1538 171.206 29.307 172.269 29.307C174.701 29.307 175.916 28.6616 175.916 27.3707C175.916 26.7581 175.602 26.3314 174.972 26.0907C174.365 25.85 173.377 25.6203 172.009 25.4015C170.576 25.1828 169.404 24.9311 168.492 24.6467C167.603 24.3623 166.821 23.87 166.148 23.1699C165.497 22.4479 165.171 21.4523 165.171 20.1834C165.171 18.5206 165.855 17.1969 167.222 16.2123C168.612 15.2059 170.479 14.7026 172.823 14.7026C174.017 14.7026 175.211 14.8449 176.405 15.1293C177.599 15.3918 178.576 15.7528 179.335 16.2123L177.772 19.3301C176.297 18.4549 174.636 18.0173 172.79 18.0173C171.597 18.0173 170.685 18.2033 170.055 18.5752C169.448 18.9253 169.143 19.3957 169.143 19.9865C169.143 20.6428 169.469 21.1133 170.12 21.3977C170.794 21.6602 171.825 21.9118 173.214 22.1525C174.604 22.3713 175.743 22.6229 176.633 22.9073C177.523 23.1917 178.283 23.6731 178.912 24.3513C179.563 25.0296 179.889 25.9923 179.889 27.2394C179.889 28.8803 179.184 30.1931 177.772 31.1776C176.362 32.1622 174.441 32.6545 172.009 32.6545Z" fill="#314E52"/>
</g>
<path d="M31.5853 16.6719C26.7374 16.6719 22.7935 20.6469 22.7935 25.5329C22.7935 30.419 26.7374 34.394 31.5853 34.394C36.4331 34.394 40.3771 30.419 40.3771 25.5329C40.3771 20.6469 36.4331 16.6719 31.5853 16.6719ZM31.5853 33.0287C27.1253 33.0287 24.148 30.0281 24.148 25.5329C24.148 21.0378 27.1253 17.9846 31.5853 17.9846C36.0453 17.9846 39.0225 21.0378 39.0225 25.5329C39.0225 30.0281 36.0453 33.0287 31.5853 33.0287Z" fill="#314E52"/>
<path d="M31.6765 21.6865C29.8811 21.6865 27.769 23.774 27.769 25.5329C27.769 27.2918 29.8811 29.3792 31.6765 29.3792C33.4719 29.3792 35.584 27.2918 35.584 25.5329C35.584 23.774 33.4719 21.6865 31.6765 21.6865ZM31.6765 28.014C30.2801 28.014 29.1439 26.901 29.1439 25.5329C29.1439 24.1648 30.2801 23.0518 31.6765 23.0518C33.073 23.0518 34.2091 24.1648 34.2091 25.5329C34.2091 26.901 33.073 28.014 31.6765 28.014Z" fill="#314E52"/>
<path d="M29.6328 20.2534C29.4585 20.1657 29.2476 20.2368 29.1609 20.4119L28.8092 21.1208C28.7223 21.2959 28.7927 21.5088 28.9665 21.5964C29.017 21.6218 29.0707 21.6338 29.1235 21.6338C29.2526 21.6338 29.3767 21.5621 29.4384 21.4379L29.79 20.729C29.877 20.5539 29.8066 20.341 29.6328 20.2534Z" fill="#FF983B"/>
<path d="M35.417 20.0583L35.0653 19.3494C34.9784 19.1746 34.7677 19.1031 34.5934 19.1908C34.4197 19.2784 34.3493 19.4913 34.4361 19.6664L34.7878 20.3753C34.8494 20.4996 34.9736 20.5712 35.1028 20.5712C35.1554 20.5712 35.2092 20.5593 35.2597 20.5338C35.4335 20.4463 35.5039 20.2334 35.417 20.0583Z" fill="#314E52"/>
<path d="M37.3695 23.7983C37.1954 23.7104 36.9846 23.7821 36.8977 23.9569L36.546 24.6658C36.4591 24.8409 36.5295 25.0538 36.7033 25.1413C36.7538 25.1668 36.8075 25.1788 36.8602 25.1788C36.9894 25.1788 37.1135 25.1071 37.1752 24.9828L37.5268 24.2739C37.6137 24.0988 37.5433 23.8859 37.3695 23.7983Z" fill="#FF983B"/>
<path d="M36.0542 27.764C35.9168 27.6255 35.6942 27.6255 35.5569 27.764L34.8535 28.4729C34.7161 28.6113 34.7161 28.8356 34.8535 28.9741C34.9222 29.0433 35.0122 29.0779 35.1022 29.0779C35.1921 29.0779 35.2821 29.0433 35.3508 28.9741L36.0542 28.2652C36.1915 28.1268 36.1915 27.9024 36.0542 27.764Z" fill="#314E52"/>
<path d="M35.351 30.9534C35.2137 30.815 34.9911 30.815 34.8537 30.9534L34.1504 31.6623C34.013 31.8007 34.013 32.0251 34.1504 32.1635C34.2191 32.2328 34.3091 32.2674 34.399 32.2674C34.489 32.2674 34.579 32.2328 34.6477 32.1635L35.351 31.4546C35.4884 31.3162 35.4884 31.0919 35.351 30.9534Z" fill="#FF983B"/>
<path d="M30.8819 30.8496C30.6877 30.8496 30.5303 31.0083 30.5303 31.2041V31.9129C30.5303 32.1087 30.6877 32.2674 30.8819 32.2674C31.0761 32.2674 31.2336 32.1087 31.2336 31.9129V31.2041C31.2336 31.0083 31.0761 30.8496 30.8819 30.8496Z" fill="#314E52"/>
<path d="M27.2087 28.0733L26.1537 27.3644C25.9919 27.2555 25.7739 27.2998 25.666 27.4627C25.5583 27.6256 25.6019 27.8457 25.7635 27.9542L26.8185 28.6631C26.8785 28.7034 26.9463 28.7226 27.0133 28.7226C27.127 28.7226 27.2384 28.6672 27.3063 28.5648C27.4139 28.4019 27.3703 28.1818 27.2087 28.0733Z" fill="#FF983B"/>
<path d="M25.9588 23.4062H25.2555C25.0613 23.4062 24.9038 23.5648 24.9038 23.7603C24.9038 23.9559 25.0613 24.1144 25.2555 24.1144H25.9588C26.153 24.1144 26.3105 23.9559 26.3105 23.7603C26.3105 23.5648 26.153 23.4062 25.9588 23.4062Z" fill="#314E52"/>
</g>
<defs>
<filter id="filter0_d" x="-0.906738" y="9.12402" width="26.2023" height="31.6295" filterUnits="userSpaceOnUse" color-interpolation-filters="sRGB">
<feFlood flood-opacity="0" result="BackgroundImageFix"/>
<feColorMatrix in="SourceAlpha" type="matrix" values="0 0 0 0 0 0 0 0 0 0 0 0 0 0 0 0 0 0 127 0" result="hardAlpha"/>
<feOffset dy="4"/>
<feGaussianBlur stdDeviation="2"/>
<feColorMatrix type="matrix" values="0 0 0 0 0 0 0 0 0 0 0 0 0 0 0 0 0 0 0.3 0"/>
<feBlend mode="normal" in2="BackgroundImageFix" result="effect1_dropShadow"/>
<feBlend mode="normal" in="SourceGraphic" in2="effect1_dropShadow" result="shape"/>
</filter>
<filter id="filter1_d" x="37.4844" y="8.07324" width="146.405" height="32.5812" filterUnits="userSpaceOnUse" color-interpolation-filters="sRGB">
<feFlood flood-opacity="0" result="BackgroundImageFix"/>
<feColorMatrix in="SourceAlpha" type="matrix" values="0 0 0 0 0 0 0 0 0 0 0 0 0 0 0 0 0 0 127 0" result="hardAlpha"/>
<feOffset dy="4"/>
<feGaussianBlur stdDeviation="2"/>
<feColorMatrix type="matrix" values="0 0 0 0 0 0 0 0 0 0 0 0 0 0 0 0 0 0 0.3 0"/>
<feBlend mode="normal" in2="BackgroundImageFix" result="effect1_dropShadow"/>
<feBlend mode="normal" in="SourceGraphic" in2="effect1_dropShadow" result="shape"/>
</filter>
<clipPath id="clip0">
<rect width="183" height="40.0389" fill="white" transform="translate(0 0.918945)"/>
</clipPath>
</defs>
</svg>
