<svg width="637" height="543" viewBox="0 0 637 543" fill="none" xmlns="http://www.w3.org/2000/svg">
<g clip-path="url(#clip0)">
<g clip-path="url(#clip1)">
<path d="M303.636 342.865C304.017 342.865 304.326 342.531 304.326 342.117V337.829C304.326 336.501 303.504 335.319 302.326 334.954L294.171 332.429C293.804 332.32 293.423 332.545 293.318 332.943C293.213 333.34 293.425 333.753 293.791 333.867L301.946 336.392C302.535 336.574 302.947 337.165 302.947 337.829V342.118C302.947 342.531 303.256 342.865 303.636 342.865Z" fill="#7DCD55"/>
<path d="M300.218 375.755H315.331C316.104 375.755 316.726 375.066 316.71 374.227L316.08 342.833C316.064 342.02 315.451 341.37 314.701 341.37H300.848C300.098 341.37 299.485 342.02 299.469 342.833L298.84 374.227C298.823 375.066 299.445 375.755 300.218 375.755Z" fill="#FFC855"/>
<path d="M307.776 352.968C307.787 352.968 307.797 352.968 307.808 352.967C308.188 352.948 308.483 352.599 308.466 352.187C308.398 350.575 309.444 349.911 309.488 349.884C309.817 349.681 309.937 349.228 309.754 348.87C309.571 348.513 309.159 348.379 308.827 348.573C308.751 348.616 306.98 349.684 307.088 352.254C307.105 352.655 307.41 352.968 307.776 352.968Z" fill="#649B4B"/>
<path d="M304.894 346.263C306.773 346.263 308.302 347.988 308.302 350.11C308.302 350.45 308.047 350.725 307.734 350.725C305.855 350.725 304.326 349 304.326 346.878C304.326 346.538 304.581 346.263 304.894 346.263Z" fill="#7DCD55"/>
<path d="M304.894 346.263C306.773 346.263 308.302 347.988 308.302 350.11C308.302 350.24 308.256 350.354 308.193 350.453L304.493 346.443C304.595 346.331 304.737 346.263 304.894 346.263Z" fill="#A0EB64"/>
<path d="M304.505 351.609C304.998 351.435 305.51 351.432 306.01 351.574C307.17 351.901 308.377 351.901 309.537 351.574C310.037 351.432 310.549 351.435 311.042 351.609C312.899 352.263 313.782 355.075 313.014 357.889C312.247 360.704 310.12 362.455 308.263 361.8C308.261 361.8 308.259 361.799 308.258 361.798C307.942 361.686 307.605 361.686 307.29 361.798C307.288 361.799 307.286 361.8 307.284 361.8C305.428 362.455 303.301 360.704 302.533 357.889C301.766 355.075 302.649 352.263 304.505 351.609Z" fill="#E15050"/>
<path d="M310.255 357.89C310.973 355.255 310.245 352.622 308.625 351.76C308.931 351.719 309.235 351.659 309.536 351.574C310.036 351.432 310.548 351.435 311.041 351.609C312.898 352.263 313.781 355.075 313.013 357.889C312.246 360.704 310.119 362.455 308.262 361.8C308.26 361.8 308.258 361.799 308.257 361.798C307.941 361.686 307.604 361.686 307.289 361.798C307.287 361.799 307.285 361.8 307.283 361.8C306.991 361.903 306.692 361.94 306.393 361.929C307.996 361.871 309.608 360.261 310.255 357.89Z" fill="#D24146"/>
<path d="M304.518 358.002C304.583 358.002 304.649 357.992 304.714 357.971C305.079 357.855 305.288 357.438 305.18 357.043C304.793 355.624 305.178 354.592 305.389 354.438C305.752 354.311 305.935 353.896 305.817 353.504C305.7 353.11 305.293 352.902 304.933 353.031C303.946 353.378 303.262 355.286 303.857 357.466C303.945 357.792 304.22 358.002 304.518 358.002Z" fill="#FF6E6E"/>
<path d="M305.014 367.532H310.532C311.294 367.532 311.911 366.863 311.911 366.037C311.911 365.211 311.294 364.542 310.532 364.542H305.014C304.253 364.542 303.635 365.211 303.635 366.037C303.635 366.863 304.253 367.532 305.014 367.532Z" fill="#E15050"/>
<path d="M305.704 370.522H309.843C310.223 370.522 310.532 370.188 310.532 369.775C310.532 369.362 310.223 369.027 309.843 369.027H305.704C305.324 369.027 305.015 369.362 305.015 369.775C305.015 370.188 305.324 370.522 305.704 370.522Z" fill="#FFA046"/>
</g>
<path d="M374.527 127.776H377.419V46.8424C377.419 40.691 378.606 34.5998 380.91 28.9166C383.215 23.2334 386.593 18.0695 390.851 13.7198C395.109 9.37006 400.165 5.91967 405.728 3.56563C411.292 1.21158 417.255 -1.92449e-05 423.277 2.29241e-10L591.142 2.2926e-10C597.164 -1.92449e-05 603.127 1.21158 608.691 3.56563C614.255 5.91967 619.31 9.37007 623.569 13.7198C627.827 18.0695 631.205 23.2334 633.509 28.9166C635.814 34.5998 637 40.691 637 46.8424V490.852C637 497.004 635.814 503.095 633.509 508.778C631.205 514.461 627.827 519.625 623.569 523.975C619.31 528.325 614.255 531.775 608.691 534.129C603.127 536.483 597.164 537.695 591.142 537.695H423.277C417.255 537.695 411.292 536.483 405.728 534.129C400.165 531.775 395.109 528.325 390.851 523.975C386.593 519.625 383.215 514.461 380.91 508.778C378.606 503.095 377.419 497.004 377.419 490.852L377.419 185.387H374.527V127.776Z" fill="#D7D7D7"/>
<path d="M421.427 12.187L443.339 12.187C442.332 14.7105 441.947 17.4485 442.219 20.1597C442.491 22.8708 443.412 25.472 444.9 27.734C446.389 29.996 448.399 31.8495 450.753 33.1311C453.108 34.4127 455.735 35.0832 458.403 35.0834L554.571 35.0834C557.239 35.0832 559.866 34.4127 562.221 33.1311C564.575 31.8495 566.585 29.996 568.074 27.734C569.562 25.472 570.483 22.8708 570.755 20.1597C571.027 17.4485 570.643 14.7106 569.635 12.187L590.101 12.187C594.598 12.187 599.051 13.0918 603.206 14.8498C607.361 16.6078 611.136 19.1845 614.316 22.4328C617.496 25.6811 620.019 29.5374 621.74 33.7815C623.461 38.0257 624.347 42.5745 624.347 47.1683V490.527C624.347 495.121 623.461 499.67 621.74 503.914C620.019 508.158 617.496 512.014 614.316 515.263C611.136 518.511 607.361 521.088 603.206 522.846C599.051 524.604 594.598 525.508 590.101 525.508H421.427C416.93 525.508 412.477 524.604 408.322 522.846C404.167 521.088 400.392 518.511 397.212 515.263C394.032 512.014 391.509 508.158 389.788 503.914C388.067 499.67 387.181 495.121 387.181 490.527L387.181 47.1683C387.181 42.5745 388.067 38.0257 389.788 33.7815C391.509 29.5374 394.032 25.6811 397.212 22.4328C400.392 19.1845 404.167 16.6078 408.322 14.8498C412.477 13.0918 416.93 12.187 421.427 12.187Z" fill="white"/>
<path d="M455.387 103.923H465.458C465.812 103.923 466.151 104.067 466.402 104.323C466.652 104.579 466.793 104.925 466.793 105.287V109.803C466.793 110.164 466.652 110.511 466.402 110.767C466.151 111.023 465.812 111.166 465.458 111.166H463.789V117.932H457.056V111.166H455.387C455.033 111.166 454.693 111.023 454.443 110.767C454.192 110.511 454.052 110.164 454.052 109.803V105.287C454.052 104.925 454.192 104.579 454.443 104.323C454.693 104.067 455.033 103.923 455.387 103.923Z" fill="#E6E6E6"/>
<path d="M445.305 145.248C451.473 136.029 454.626 125.053 454.313 113.891C454.307 113.634 454.389 113.382 454.544 113.179C454.7 112.976 454.919 112.835 455.165 112.778V110.827H465.801V112.751H465.948C466.237 112.751 466.515 112.869 466.719 113.079C466.924 113.288 467.038 113.572 467.038 113.867C467.038 113.894 467.037 113.921 467.035 113.949C466.197 125.88 469.026 136.58 475.523 146.048C475.897 146.592 476.088 147.246 476.068 147.91L474.905 184.658C474.877 185.478 474.54 186.255 473.965 186.827C473.389 187.399 472.62 187.722 471.817 187.729H447.759C446.947 187.722 446.17 187.392 445.593 186.808C445.016 186.224 444.685 185.434 444.67 184.604L444.222 148.925C444.208 147.615 444.586 146.333 445.305 145.248Z" fill="#409A80"/>
<path d="M448.842 156.595H469.783C470.093 156.595 470.399 156.663 470.681 156.795C470.962 156.928 471.213 157.121 471.414 157.361C471.616 157.601 471.765 157.883 471.85 158.188C471.935 158.492 471.955 158.812 471.908 159.125L468.743 180.135H450.573L446.729 159.196C446.671 158.878 446.682 158.552 446.761 158.24C446.841 157.927 446.986 157.637 447.188 157.388C447.39 157.14 447.643 156.94 447.929 156.803C448.214 156.666 448.526 156.595 448.842 156.595Z" fill="white"/>
<path d="M566.474 394.036H577.362V399.597H566.474V394.036Z" fill="white"/>
<path d="M544.236 394.036H555.125V399.597H544.236V394.036Z" fill="white"/>
<path d="M521.998 394.036H532.887V399.597H521.998V394.036Z" fill="white"/>
<path d="M407.609 186.42L604.343 186.42V208.584L407.609 208.584V186.42Z" fill="#E6E6E6"/>
<path d="M407.609 296.503H604.343V318.668H407.609V296.503Z" fill="#E6E6E6"/>
<path d="M407.609 406.587H604.343V428.752H407.609V406.587Z" fill="#E6E6E6"/>
<path d="M65.3822 496.508L114.395 461.097C97.8644 444.649 82.8298 421.228 68.4516 394.747L19.4393 430.157C39.024 452.877 55.6143 475.174 65.3822 496.508Z" fill="#FF983B"/>
<path d="M65.3703 458.807C57.3811 458.807 50.9046 452.191 50.9046 444.031C50.9046 435.87 57.3811 429.254 65.3703 429.254C73.3594 429.254 79.8359 435.87 79.8359 444.031C79.8359 452.191 73.3594 458.807 65.3703 458.807Z" fill="white"/>
<path d="M301.813 334.922H307.193C307.382 334.922 307.564 334.999 307.697 335.136C307.831 335.272 307.906 335.458 307.906 335.651V338.063C307.906 338.159 307.888 338.254 307.852 338.342C307.816 338.43 307.764 338.511 307.697 338.578C307.631 338.646 307.552 338.7 307.466 338.736C307.379 338.773 307.287 338.792 307.193 338.792H306.301V342.406H302.705V338.792H301.813C301.624 338.792 301.442 338.715 301.309 338.578C301.175 338.442 301.1 338.256 301.1 338.063V335.651C301.1 335.458 301.175 335.272 301.309 335.136C301.442 334.999 301.624 334.922 301.813 334.922Z" fill="#E6E6E6"/>
<path opacity="0.2" d="M302.935 335.708C302.935 336.125 303.097 336.525 303.386 336.819C303.674 337.114 304.066 337.28 304.474 337.28C304.882 337.28 305.273 337.114 305.562 336.819C305.851 336.525 306.013 336.125 306.013 335.708" fill="black"/>
<path d="M131.56 411.614H141.631C141.985 411.614 142.324 411.757 142.575 412.013C142.825 412.269 142.966 412.616 142.966 412.978V417.493C142.966 417.855 142.825 418.202 142.575 418.457C142.324 418.713 141.985 418.857 141.631 418.857H139.962V425.622H133.229V418.857H131.56C131.206 418.857 130.866 418.713 130.616 418.457C130.365 418.202 130.224 417.855 130.224 417.493V412.978C130.224 412.616 130.365 412.269 130.616 412.013C130.866 411.757 131.206 411.614 131.56 411.614Z" fill="#E6E6E6"/>
<path d="M121.47 452.939C127.638 443.72 130.791 432.743 130.478 421.582C130.472 421.324 130.554 421.073 130.709 420.87C130.865 420.667 131.084 420.525 131.33 420.469V418.518H141.966V420.442H142.113C142.256 420.442 142.398 420.471 142.531 420.527C142.663 420.583 142.783 420.665 142.884 420.769C142.986 420.873 143.066 420.996 143.12 421.131C143.175 421.266 143.203 421.411 143.203 421.558C143.203 421.585 143.202 421.612 143.2 421.639C142.362 433.57 145.192 444.27 151.689 453.739C152.062 454.283 152.253 454.936 152.233 455.601L151.07 492.349C151.042 493.168 150.705 493.945 150.13 494.517C149.554 495.09 148.785 495.413 147.982 495.419H123.925C123.112 495.412 122.335 495.082 121.758 494.498C121.181 493.915 120.85 493.124 120.835 492.295L120.387 456.615C120.374 455.306 120.751 454.023 121.47 452.939Z" fill="#409A80"/>
<path opacity="0.2" d="M133.659 413.085C133.659 413.865 133.962 414.614 134.502 415.166C135.043 415.718 135.775 416.028 136.539 416.028C137.303 416.028 138.036 415.718 138.576 415.166C139.116 414.614 139.42 413.865 139.42 413.085" fill="black"/>
<path d="M125.28 465.145H146.22C146.53 465.145 146.836 465.213 147.118 465.346C147.4 465.478 147.65 465.671 147.852 465.911C148.054 466.151 148.202 466.434 148.287 466.738C148.373 467.042 148.392 467.362 148.345 467.675L145.181 488.685H127.01L123.167 467.746C123.109 467.429 123.12 467.102 123.199 466.79C123.278 466.478 123.424 466.187 123.626 465.939C123.827 465.69 124.08 465.49 124.366 465.353C124.652 465.216 124.964 465.145 125.28 465.145Z" fill="white"/>
<path d="M160.293 496.45H220.326C216.129 473.271 217.095 445.281 220.326 415.18H160.293C163.439 445.281 164.379 473.271 160.293 496.45Z" fill="#E2842F"/>
<path d="M405.842 240.682L392.365 239.431L383.789 218.156L399.103 209.396L405.842 240.682Z" fill="#FFB8B8"/>
<path d="M282.159 299.088C281.711 297.946 281.535 296.712 281.645 295.487C281.756 294.263 282.149 293.082 282.794 292.043C283.439 291.005 284.316 290.137 285.353 289.513C286.39 288.888 287.558 288.524 288.76 288.451L309.685 287.176L312.766 297.641L291.225 303.684C289.425 304.189 287.506 304 285.834 303.152C284.162 302.304 282.854 300.858 282.159 299.088Z" fill="#FFB8B8"/>
<path d="M304.627 303.86L304.858 284.223L351.336 276.647L387.143 234.699C389.005 232.517 391.58 231.098 394.388 230.706C397.197 230.313 400.05 230.974 402.418 232.566C403.852 233.529 405.061 234.803 405.96 236.296C406.859 237.79 407.426 239.467 407.621 241.209C407.815 242.95 407.633 244.715 407.087 246.377C406.541 248.039 405.644 249.558 404.46 250.827L374.92 287.961L304.627 303.86Z" fill="#575A89"/>
<path d="M416.256 524.768H404.004L373.615 384.423L342.133 427.778L323.755 521.639H312.116L314.567 420.895L355.61 313.268H396.041C407.089 333.693 415.756 354.748 405.842 376.468L416.256 524.768Z" fill="#2F2E41"/>
<path d="M331.266 533.293C331.401 533.735 331.443 534.203 331.388 534.663C331.332 535.123 331.182 535.567 330.946 535.963C330.71 536.36 330.394 536.7 330.019 536.962C329.645 537.224 329.22 537.401 328.772 537.483L298.792 542.917C297.608 543.138 296.385 542.91 295.354 542.273C294.323 541.637 293.556 540.638 293.196 539.464C292.847 538.342 292.896 537.13 293.334 536.041C293.773 534.952 294.573 534.056 295.594 533.51C302.186 530.052 307.859 525.014 312.128 518.827C315.423 521.961 319.105 521.666 323.016 519.356L327.164 519.886L331.266 533.293Z" fill="#2F2E41"/>
<path d="M421.928 533.293C422.063 533.735 422.105 534.203 422.05 534.663C421.995 535.123 421.844 535.567 421.608 535.963C421.372 536.36 421.056 536.7 420.682 536.962C420.307 537.224 419.882 537.401 419.435 537.483L389.454 542.917C388.27 543.138 387.047 542.91 386.016 542.273C384.985 541.637 384.218 540.638 383.859 539.464C383.509 538.342 383.558 537.13 383.996 536.041C384.435 534.952 385.235 534.056 386.256 533.51C392.848 530.052 398.521 525.014 402.79 518.827C406.085 521.961 409.767 521.666 413.678 519.356L417.826 519.886L421.928 533.293Z" fill="#2F2E41"/>
<path d="M383.481 225.977C374.008 225.977 366.329 218.133 366.329 208.457C366.329 198.78 374.008 190.936 383.481 190.936C392.954 190.936 400.634 198.78 400.634 208.457C400.634 218.133 392.954 225.977 383.481 225.977Z" fill="#FFB8B8"/>
<path d="M398.796 317.961L354.078 316.71L367.21 274.489C359.049 261.124 367.263 247.773 378.887 234.425L388.076 228.168L402.778 226.916C409.144 233.874 412.627 243.077 412.498 252.599C412.206 272.989 408.672 295.185 398.796 317.961Z" fill="#575A89"/>
<path d="M296.053 346.381C295.201 345.511 294.564 344.447 294.194 343.277C293.824 342.107 293.731 340.863 293.924 339.649C294.116 338.435 294.589 337.285 295.302 336.294C296.015 335.303 296.948 334.499 298.025 333.949L316.772 324.369L323.635 332.752L306.158 346.964C304.697 348.151 302.86 348.748 300.997 348.641C299.133 348.533 297.373 347.729 296.053 346.381Z" fill="#FFB8B8"/>
<path d="M318.549 341.739L311.198 323.593L351.012 297.951L367.776 244.997C368.648 242.242 370.468 239.903 372.9 238.414C375.331 236.925 378.208 236.386 380.998 236.897C382.687 237.207 384.289 237.892 385.691 238.904C387.093 239.916 388.26 241.229 389.11 242.753C389.96 244.276 390.472 245.971 390.61 247.719C390.747 249.466 390.508 251.223 389.908 252.866L377.051 298.876L318.549 341.739Z" fill="#575A89"/>
<path d="M411.66 201.573C411.66 208.391 407.326 218.949 401.859 223.474C398.18 226.519 393.319 226.391 391.445 222.223C389.522 217.947 382.895 207.896 371.23 201.573C355.679 193.145 376.744 178.725 391.445 180.924C402.492 182.576 411.66 190.169 411.66 201.573Z" fill="#1C1C1C"/>
<path d="M401.248 192.187C394.482 192.187 388.997 186.584 388.997 179.672C388.997 172.761 394.482 167.158 401.248 167.158C408.015 167.158 413.5 172.761 413.5 179.672C413.5 186.584 408.015 192.187 401.248 192.187Z" fill="#1C1C1C"/>
<path d="M387.158 175.293C387.16 172.138 388.328 169.099 390.43 166.787C392.532 164.475 395.411 163.06 398.491 162.825C398.187 162.802 397.883 162.778 397.572 162.778C394.323 162.778 391.207 164.096 388.909 166.443C386.611 168.79 385.321 171.973 385.321 175.293C385.321 178.612 386.611 181.795 388.909 184.142C391.207 186.489 394.323 187.807 397.572 187.807C397.883 187.807 398.187 187.783 398.491 187.76C395.411 187.525 392.532 186.11 390.43 183.798C388.328 181.486 387.16 178.448 387.158 175.293Z" fill="#1C1C1C"/>
<path d="M383.176 214.714C381.654 214.714 380.419 213.033 380.419 210.959C380.419 208.886 381.654 207.205 383.176 207.205C384.698 207.205 385.933 208.886 385.933 210.959C385.933 213.033 384.698 214.714 383.176 214.714Z" fill="#FFB8B8"/>
<path d="M36.0461 501.817H226.767L267.154 306.796H301.622V298.046H260.211L219.824 493.066H36.0461V501.817Z" fill="#2F2E41"/>
<path d="M198.819 537.446C188.68 537.446 180.461 529.05 180.461 518.694C180.461 508.337 188.68 499.942 198.819 499.942C208.958 499.942 217.177 508.337 217.177 518.694C217.177 529.05 208.958 537.446 198.819 537.446Z" fill="#2F2E41"/>
<path d="M61.7467 537.446C51.608 537.446 43.389 529.05 43.389 518.694C43.389 508.337 51.608 499.942 61.7467 499.942C71.8854 499.942 80.1045 508.337 80.1045 518.694C80.1045 529.05 71.8854 537.446 61.7467 537.446Z" fill="#2F2E41"/>
<path d="M39.5226 497.696H225.084L257.824 332.424H8.79771C7.52699 332.424 6.27144 332.706 5.11729 333.249C3.96317 333.792 2.93784 334.584 2.11194 335.57C1.28604 336.557 0.679138 337.714 0.332947 338.963C-0.0132751 340.212 -0.0905762 341.523 0.106415 342.805L30.8326 490.105C31.1497 492.225 32.2016 494.157 33.7967 495.55C35.3918 496.944 37.4238 497.705 39.5226 497.696ZM223.069 495.196H39.5226C38.0079 495.203 36.5413 494.653 35.3902 493.647C34.2391 492.641 33.4801 491.247 33.2516 489.717L2.52542 342.417C2.38295 341.491 2.43849 340.545 2.68822 339.644C2.93793 338.742 3.37595 337.907 3.97202 337.195C4.5681 336.483 5.30815 335.911 6.1412 335.519C6.97427 335.127 7.88054 334.924 8.79771 334.925H254.853L223.069 495.196Z" fill="#2F2E41"/>
<path d="M69.7884 495.914L72.2051 495.513L51.3899 333.474L48.9731 333.874L69.7884 495.914Z" fill="#2F2E41"/>
<path d="M126.589 333.674H129.037L129.037 496.964H126.589L126.589 333.674Z" fill="#2F2E41"/>
<path d="M245.321 377.429L245.327 379.929L8.39292 380.515L8.38699 378.015L245.321 377.429Z" fill="#2F2E41"/>
<path d="M25.1067 454.664L233.259 456.118L233.242 458.618L25.0899 457.165L25.1067 454.664Z" fill="#2F2E41"/>
<path d="M297.95 308.672C290.515 308.672 284.487 305.313 284.487 301.171C284.487 297.028 290.515 293.67 297.95 293.67C305.385 293.67 311.412 297.028 311.412 301.171C311.412 305.313 305.385 308.672 297.95 308.672Z" fill="#2F2E41"/>
<path d="M191.411 469.2C183.422 469.2 176.946 462.585 176.946 454.424C176.946 446.263 183.422 439.647 191.411 439.647C199.4 439.647 205.877 446.263 205.877 454.424C205.877 462.585 199.4 469.2 191.411 469.2Z" fill="white"/>
<path d="M189.01 497.167L210.451 333.878L208.037 333.47L186.595 496.76L189.01 497.167Z" fill="#2F2E41"/>
<path d="M469.559 161.913C469.718 155.112 472.769 148.644 478.051 143.911C483.333 139.178 490.419 136.563 497.772 136.632C505.125 136.701 512.152 139.449 517.329 144.279C522.506 149.11 525.415 155.634 525.426 162.437C525.426 162.546 525.426 162.656 525.426 162.759C525.426 162.838 525.426 162.923 525.426 163.003C525.426 163.197 525.426 163.398 525.426 163.611C525.426 163.824 525.426 163.995 525.38 164.22C525.334 164.445 525.38 164.603 525.334 164.792C525.334 165.035 525.294 165.279 525.261 165.522C524.475 171.613 521.373 177.246 516.509 181.415C511.645 185.584 505.336 188.017 498.711 188.278C492.086 188.539 485.577 186.612 480.347 182.841C475.117 179.07 471.508 173.702 470.164 167.695C469.902 166.49 469.728 165.27 469.644 164.043C469.644 163.745 469.644 163.435 469.644 163.149C469.644 163.039 469.605 162.93 469.605 162.82C469.605 162.717 469.605 162.607 469.605 162.485C469.605 162.364 469.552 162.084 469.559 161.913ZM497.469 173.483C499.038 173.484 500.591 173.199 502.04 172.644C503.489 172.089 504.806 171.275 505.915 170.249C507.024 169.224 507.904 168.005 508.504 166.665C509.104 165.324 509.412 163.887 509.411 162.437C509.411 162.254 509.411 162.071 509.411 161.889C509.293 159.734 508.494 157.659 507.114 155.92C505.734 154.18 503.833 152.854 501.647 152.103C499.46 151.353 497.083 151.212 494.811 151.698C492.539 152.184 490.47 153.275 488.861 154.837C487.253 156.399 486.174 158.363 485.759 160.486C485.344 162.609 485.612 164.798 486.527 166.782C487.443 168.766 488.968 170.459 490.913 171.65C492.857 172.841 495.137 173.478 497.469 173.483Z" fill="#EAA74E"/>
<path d="M473.664 162.108V161.986C473.729 156.143 476.3 150.564 480.812 146.475C485.323 142.386 491.406 140.122 497.722 140.182C504.038 140.242 510.07 142.62 514.491 146.793C518.911 150.967 521.358 156.594 521.294 162.436V162.814V162.942C521.294 163.106 521.294 163.27 521.294 163.428V163.867L521.156 164.682C521.156 164.804 521.156 164.926 521.116 165.06C520.44 170.25 517.791 175.048 513.642 178.598C509.493 182.148 504.115 184.217 498.469 184.437C492.823 184.656 487.276 183.011 482.82 179.796C478.364 176.581 475.289 172.005 474.145 166.885C473.916 165.858 473.769 164.816 473.704 163.769C473.704 163.538 473.704 163.307 473.704 163.075C473.704 163.075 473.704 162.728 473.704 162.668V162.059L473.664 162.108ZM497.469 177.287C501.726 177.284 505.807 175.718 508.817 172.934C511.827 170.149 513.52 166.374 513.523 162.436C513.523 162.199 513.523 161.956 513.523 161.718C513.37 158.818 512.3 156.022 510.447 153.678C508.593 151.334 506.037 149.545 503.095 148.531C500.153 147.518 496.954 147.325 493.895 147.976C490.835 148.628 488.05 150.095 485.883 152.197C483.716 154.298 482.263 156.941 481.704 159.799C481.145 162.656 481.504 165.603 482.737 168.274C483.971 170.944 486.024 173.222 488.642 174.824C491.261 176.426 494.33 177.282 497.469 177.287Z" fill="#EDB469"/>
<path d="M469.559 162.771V162.436C469.559 162.26 469.559 162.083 469.559 161.913C469.596 158.52 470.355 155.168 471.793 152.047C473.231 148.926 475.319 146.097 477.939 143.723C480.558 141.348 483.658 139.474 487.06 138.207C490.462 136.941 494.101 136.307 497.769 136.341C505.175 136.411 512.249 139.199 517.433 144.093C522.617 148.986 525.488 155.585 525.413 162.436V162.783C525.417 162.864 525.417 162.945 525.413 163.027C525.413 163.221 525.413 163.422 525.413 163.635C525.413 163.848 525.413 164.019 525.373 164.244C525.334 164.469 525.373 164.627 525.327 164.816C523.892 165.797 522.105 166.233 520.333 166.033C520.229 166.204 520.175 166.397 520.175 166.593V172.783C520.175 173.227 519.985 173.652 519.645 173.966C519.306 174.28 518.846 174.457 518.366 174.457C517.886 174.457 517.426 174.28 517.087 173.966C516.747 173.652 516.557 173.227 516.557 172.783V171.852H516.517V169.886C516.454 169.614 516.291 169.37 516.057 169.195C515.823 169.021 515.532 168.925 515.231 168.925C514.93 168.925 514.638 169.021 514.404 169.195C514.17 169.37 514.008 169.614 513.945 169.886V173.744C513.943 174.181 513.754 174.6 513.42 174.909C513.086 175.218 512.634 175.392 512.161 175.394C511.688 175.394 511.234 175.22 510.898 174.911C510.563 174.602 510.374 174.182 510.372 173.744V161.785C510.043 161.578 509.714 161.371 509.372 161.176C509.372 161.006 509.326 160.835 509.299 160.671C509.234 160.33 509.161 159.996 509.069 159.673C509.023 159.503 508.97 159.344 508.911 159.186C508.852 159.028 508.799 158.863 508.74 158.705C508.686 158.546 508.622 158.39 508.549 158.237C508.489 158.085 508.419 157.936 508.339 157.792C508.293 157.695 508.247 157.604 508.194 157.506C508.141 157.409 508.102 157.354 508.062 157.281L507.878 156.977L507.826 156.885C507.753 156.782 507.687 156.685 507.622 156.587L507.529 156.453L507.253 156.088C507.168 155.966 507.069 155.845 506.977 155.735L506.865 155.613L506.602 155.309C505.899 154.547 505.092 153.874 504.2 153.307H504.161C503.876 153.128 503.582 152.964 503.279 152.814C503.121 152.729 502.97 152.655 502.805 152.576L502.318 152.369C502.186 152.308 502.05 152.256 501.911 152.211C501.684 152.119 501.451 152.04 501.213 151.974C501.112 151.939 501.009 151.908 500.904 151.883L500.601 151.803L500.391 151.755L500.095 151.694C499.984 151.667 499.872 151.647 499.759 151.633C499.601 151.596 499.45 151.572 499.292 151.554L498.713 151.481H498.331C498.055 151.481 497.779 151.481 497.502 151.481H496.89C496.653 151.481 496.403 151.481 496.167 151.542L495.699 151.596H495.653L495.199 151.676C495.122 151.687 495.045 151.704 494.969 151.724L494.594 151.797L494.436 151.834L494.134 151.913C494.008 151.913 493.89 151.98 493.758 152.016C493.416 152.118 493.08 152.236 492.752 152.369C492.436 152.497 492.094 152.637 491.818 152.789C491.508 152.948 491.212 153.106 490.929 153.282C490.214 153.728 489.553 154.242 488.955 154.816C487.232 156.451 486.094 158.538 485.699 160.793C484.379 161.036 483.091 161.407 481.856 161.901V167.305C481.858 167.492 481.82 167.677 481.744 167.849C481.668 168.022 481.556 168.179 481.414 168.312C481.272 168.444 481.103 168.549 480.917 168.621C480.731 168.692 480.531 168.729 480.33 168.729C480.124 168.734 479.92 168.701 479.729 168.632C479.538 168.562 479.364 168.458 479.218 168.325C479.071 168.192 478.955 168.034 478.876 167.858C478.796 167.683 478.756 167.495 478.757 167.305V165.376C478.736 165.074 478.609 164.786 478.397 164.556C478.185 164.326 477.898 164.165 477.579 164.098C477.472 164.073 477.361 164.061 477.25 164.061H477.211C476.925 164.062 476.645 164.139 476.405 164.282C476.165 164.426 475.974 164.63 475.855 164.871C475.748 165.058 475.689 165.267 475.684 165.479V167.208V171.73C475.686 171.916 475.648 172.1 475.573 172.272C475.497 172.444 475.385 172.6 475.244 172.732C475.103 172.864 474.934 172.968 474.749 173.04C474.564 173.111 474.365 173.148 474.165 173.148H474.125C473.72 173.146 473.331 172.996 473.045 172.731C472.759 172.465 472.599 172.105 472.599 171.73V170.555H472.559V168.827C472.559 168.452 472.398 168.093 472.112 167.828C471.826 167.564 471.438 167.415 471.033 167.415C470.714 167.413 470.403 167.504 470.144 167.676C469.882 166.471 469.708 165.251 469.625 164.025C469.62 163.948 469.62 163.87 469.625 163.793C469.625 163.568 469.625 163.355 469.625 163.124V162.771H469.559Z" fill="#F47CC3"/>
<path d="M469.559 162.771V162.436C469.559 162.26 469.559 162.083 469.559 161.913C469.596 158.52 470.355 155.168 471.793 152.047C473.231 148.926 475.319 146.097 477.939 143.723C480.558 141.348 483.658 139.474 487.06 138.207C490.462 136.941 494.101 136.307 497.769 136.341C505.175 136.411 512.249 139.199 517.433 144.093C522.617 148.986 525.488 155.585 525.413 162.436V162.783C525.417 162.864 525.417 162.945 525.413 163.027C525.413 163.167 525.413 163.306 525.413 163.44C525.127 156.746 522.042 150.417 516.807 145.788C511.572 141.158 504.598 138.591 497.356 138.628C490.114 138.666 483.171 141.304 477.992 145.987C472.813 150.669 469.804 157.03 469.598 163.726C469.598 163.526 469.598 163.325 469.598 163.118V162.765L469.559 162.771Z" fill="#FF99D6"/>
<path d="M512.118 173.964C512.353 173.965 512.587 173.924 512.805 173.842C513.023 173.76 513.222 173.639 513.389 173.485C513.557 173.332 513.69 173.15 513.781 172.949C513.872 172.748 513.92 172.532 513.921 172.314V168.456C513.984 168.184 514.146 167.94 514.38 167.765C514.614 167.59 514.906 167.495 515.207 167.495C515.508 167.495 515.799 167.59 516.033 167.765C516.267 167.94 516.43 168.184 516.493 168.456V169.886C516.43 169.614 516.267 169.37 516.033 169.195C515.799 169.021 515.508 168.925 515.207 168.925C514.906 168.925 514.614 169.021 514.38 169.195C514.146 169.37 513.984 169.614 513.921 169.886V173.745C513.919 174.182 513.73 174.6 513.396 174.909C513.062 175.218 512.61 175.392 512.138 175.394C511.664 175.394 511.21 175.22 510.874 174.911C510.539 174.602 510.35 174.183 510.348 173.745V172.314C510.35 172.749 510.536 173.166 510.867 173.475C511.199 173.783 511.648 173.959 512.118 173.964Z" fill="#D45C9E"/>
<path d="M516.556 171.364C516.584 171.789 516.786 172.187 517.12 172.478C517.455 172.769 517.896 172.931 518.356 172.931C518.815 172.931 519.257 172.769 519.591 172.478C519.926 172.187 520.128 171.789 520.155 171.364V165.108C520.155 164.912 520.21 164.719 520.313 164.548C522.085 164.747 523.872 164.311 525.307 163.331C525.307 163.142 525.307 162.947 525.353 162.758C525.399 162.57 525.353 162.375 525.393 162.15C525.432 161.925 525.393 161.894 525.393 161.772C525.393 161.985 525.393 162.192 525.393 162.381V162.728C525.397 162.809 525.397 162.89 525.393 162.971C525.393 163.166 525.393 163.367 525.393 163.58C525.393 163.793 525.393 163.964 525.353 164.189C525.314 164.414 525.353 164.572 525.307 164.761C523.872 165.742 522.085 166.178 520.313 165.978C520.209 166.149 520.155 166.342 520.155 166.538V172.783C520.128 173.207 519.926 173.605 519.591 173.896C519.257 174.187 518.815 174.35 518.356 174.35C517.896 174.35 517.455 174.187 517.12 173.896C516.786 173.605 516.584 173.207 516.556 172.783V171.851H516.517V170.427H516.556V171.364Z" fill="#D45C9E"/>
<path d="M480.283 167.305C480.484 167.305 480.683 167.269 480.869 167.197C481.054 167.126 481.223 167.021 481.365 166.89C481.507 166.758 481.619 166.601 481.695 166.429C481.772 166.257 481.81 166.073 481.81 165.887V167.305C481.811 167.492 481.773 167.677 481.697 167.849C481.621 168.022 481.509 168.179 481.367 168.312C481.225 168.444 481.056 168.549 480.87 168.621C480.684 168.693 480.485 168.729 480.283 168.729C480.081 168.729 479.881 168.693 479.695 168.621C479.508 168.549 479.339 168.444 479.197 168.312C479.054 168.18 478.941 168.023 478.865 167.85C478.788 167.677 478.749 167.492 478.75 167.305V165.863C478.747 166.051 478.784 166.238 478.859 166.413C478.935 166.588 479.047 166.747 479.19 166.881C479.332 167.016 479.503 167.122 479.69 167.195C479.878 167.268 480.08 167.305 480.283 167.305Z" fill="#D45C9E"/>
<path d="M509.315 159.74C509.315 159.74 509.973 160.148 510.315 160.349V161.773C509.986 161.566 509.657 161.359 509.315 161.164C509.315 160.994 509.269 160.824 509.243 160.659C509.177 160.318 509.105 159.984 509.013 159.661V159.582L509.315 159.74Z" fill="#D45C9E"/>
<path d="M486.012 159.393C486.012 159.393 485.742 160.464 485.689 160.817C484.37 161.06 483.082 161.431 481.847 161.924V160.476C483.195 159.994 484.59 159.631 486.012 159.393Z" fill="#D45C9E"/>
<path d="M472.596 170.306C472.596 170.68 472.757 171.04 473.043 171.304C473.329 171.569 473.717 171.718 474.122 171.718H474.162C474.362 171.718 474.56 171.681 474.745 171.61C474.93 171.539 475.098 171.435 475.239 171.304C475.38 171.173 475.492 171.017 475.568 170.846C475.644 170.675 475.682 170.491 475.682 170.306V171.73C475.683 171.916 475.645 172.1 475.57 172.272C475.494 172.444 475.382 172.6 475.241 172.732C475.1 172.864 474.932 172.969 474.746 173.04C474.561 173.112 474.362 173.148 474.162 173.148H474.122C473.717 173.147 473.329 172.997 473.042 172.731C472.756 172.465 472.596 172.105 472.596 171.73V170.556H472.556V169.131H472.596V170.306Z" fill="#D45C9E"/>
<path d="M469.556 162.436C469.556 162.302 469.556 162.168 469.556 162.028C469.556 162.138 469.556 162.247 469.556 162.357C469.551 162.434 469.551 162.511 469.556 162.588C469.639 163.815 469.813 165.035 470.076 166.24C470.335 166.07 470.646 165.979 470.964 165.978C471.369 165.978 471.757 166.127 472.043 166.392C472.329 166.657 472.49 167.016 472.49 167.39V168.827C472.49 168.452 472.329 168.093 472.043 167.828C471.757 167.563 471.369 167.415 470.964 167.415C470.645 167.412 470.334 167.504 470.076 167.676C469.813 166.471 469.64 165.251 469.556 164.025C469.551 163.948 469.551 163.87 469.556 163.793C469.556 163.568 469.556 163.355 469.556 163.124V162.436Z" fill="#D45C9E"/>
<path d="M475.676 164.049C475.68 163.836 475.739 163.628 475.847 163.44C475.97 163.204 476.162 163.005 476.402 162.866C476.642 162.727 476.92 162.654 477.203 162.655H477.242C477.353 162.655 477.464 162.667 477.571 162.692C477.891 162.758 478.178 162.919 478.39 163.149C478.603 163.38 478.729 163.668 478.749 163.97V165.394C478.728 165.092 478.601 164.805 478.389 164.575C478.177 164.344 477.89 164.183 477.571 164.116C477.464 164.092 477.353 164.079 477.242 164.079H477.203C476.919 164.079 476.641 164.153 476.401 164.293C476.161 164.433 475.969 164.633 475.847 164.871C475.739 165.058 475.681 165.267 475.676 165.479V164.049Z" fill="#D45C9E"/>
<path d="M488.259 150.026C488.341 150.181 488.486 150.3 488.662 150.357C488.838 150.414 489.031 150.404 489.2 150.331L492.865 148.718C493.033 148.643 493.162 148.509 493.224 148.346C493.286 148.182 493.275 148.003 493.194 147.847C493.113 147.692 492.968 147.572 492.791 147.515C492.615 147.458 492.421 147.468 492.253 147.543L488.634 149.162C488.548 149.195 488.469 149.244 488.403 149.306C488.337 149.367 488.285 149.441 488.25 149.521C488.215 149.602 488.198 149.688 488.199 149.775C488.201 149.861 488.221 149.947 488.259 150.026Z" fill="#FFCE54"/>
<path d="M501.354 143.569C501.272 143.724 501.259 143.901 501.317 144.065C501.375 144.228 501.499 144.365 501.663 144.445L505.249 146.15C505.415 146.23 505.608 146.247 505.787 146.195C505.966 146.144 506.116 146.029 506.203 145.876C506.29 145.722 506.308 145.543 506.252 145.378C506.197 145.212 506.073 145.074 505.907 144.993L502.321 143.289C502.238 143.248 502.147 143.222 502.053 143.214C501.959 143.206 501.864 143.215 501.774 143.241C501.684 143.267 501.6 143.31 501.528 143.366C501.456 143.422 501.397 143.491 501.354 143.569Z" fill="#27AAE1"/>
<path d="M511.827 153.861C511.965 153.977 512.147 154.038 512.333 154.03C512.52 154.022 512.695 153.946 512.821 153.818L515.531 151.067C515.594 151.004 515.643 150.93 515.675 150.849C515.707 150.768 515.721 150.682 515.717 150.596C515.713 150.51 515.69 150.425 515.65 150.347C515.61 150.27 515.554 150.2 515.485 150.142C515.346 150.026 515.163 149.965 514.976 149.973C514.788 149.981 514.612 150.057 514.485 150.185L511.781 152.942C511.718 153.005 511.669 153.078 511.637 153.159C511.606 153.239 511.591 153.325 511.596 153.41C511.6 153.496 511.623 153.58 511.662 153.657C511.702 153.734 511.758 153.804 511.827 153.861Z" fill="#FFCE54"/>
<path d="M512.2 145.888C512.158 145.964 512.133 146.047 512.126 146.132C512.12 146.217 512.132 146.303 512.161 146.384C512.19 146.465 512.237 146.539 512.298 146.604C512.358 146.668 512.432 146.72 512.515 146.758L516.154 148.371C516.237 148.428 516.333 148.468 516.434 148.487C516.536 148.506 516.641 148.505 516.741 148.482C516.842 148.459 516.936 148.416 517.017 148.356C517.098 148.296 517.163 148.22 517.208 148.134C517.254 148.048 517.278 147.953 517.279 147.858C517.281 147.762 517.259 147.667 517.216 147.579C517.173 147.492 517.11 147.415 517.031 147.353C516.952 147.291 516.859 147.245 516.759 147.22L513.127 145.608C512.964 145.531 512.775 145.518 512.601 145.57C512.427 145.623 512.283 145.737 512.2 145.888Z" fill="#EF4136"/>
<path d="M517.362 158.924C517.362 159.097 517.436 159.263 517.568 159.385C517.7 159.507 517.879 159.575 518.066 159.575H522.099C522.284 159.572 522.459 159.502 522.588 159.38C522.718 159.259 522.79 159.095 522.79 158.924C522.791 158.839 522.774 158.755 522.739 158.677C522.705 158.598 522.655 158.527 522.59 158.466C522.526 158.406 522.45 158.358 522.366 158.324C522.281 158.291 522.191 158.274 522.099 158.273H518.066C517.973 158.272 517.881 158.288 517.795 158.321C517.71 158.353 517.632 158.401 517.566 158.462C517.501 158.523 517.449 158.595 517.414 158.674C517.379 158.753 517.361 158.838 517.362 158.924Z" fill="#EF4136"/>
<path d="M481.156 148.755C481.072 148.795 480.997 148.85 480.936 148.918C480.876 148.985 480.83 149.063 480.803 149.147C480.775 149.231 480.766 149.319 480.776 149.407C480.786 149.494 480.814 149.578 480.86 149.655L482.735 152.93C482.776 153.009 482.834 153.08 482.905 153.138C482.976 153.196 483.059 153.24 483.149 153.267C483.239 153.295 483.335 153.305 483.429 153.298C483.524 153.29 483.616 153.265 483.699 153.224C483.783 153.183 483.857 153.127 483.917 153.059C483.977 152.991 484.021 152.912 484.047 152.828C484.073 152.743 484.081 152.655 484.069 152.568C484.057 152.481 484.026 152.397 483.979 152.321L482.11 149.047C482.068 148.97 482.01 148.901 481.94 148.844C481.869 148.788 481.787 148.745 481.698 148.718C481.61 148.691 481.516 148.68 481.423 148.686C481.33 148.693 481.239 148.716 481.156 148.755Z" fill="#EF4136"/>
<path d="M484.615 141.974C484.614 142.06 484.632 142.145 484.667 142.224C484.702 142.304 484.754 142.376 484.819 142.436C484.885 142.497 484.963 142.545 485.049 142.577C485.134 142.61 485.226 142.626 485.319 142.625H489.346C489.533 142.625 489.712 142.557 489.844 142.435C489.976 142.312 490.05 142.147 490.05 141.974C490.05 141.801 489.976 141.636 489.844 141.514C489.712 141.391 489.533 141.323 489.346 141.323H485.326C485.232 141.321 485.14 141.337 485.053 141.369C484.967 141.401 484.888 141.449 484.822 141.51C484.755 141.57 484.703 141.643 484.667 141.722C484.632 141.802 484.614 141.888 484.615 141.974Z" fill="#27AAE1"/>
<g clip-path="url(#clip2)">
<path d="M443.759 382.231C443.759 385.349 446.092 387.876 448.968 387.876C451.844 387.876 454.176 385.349 454.176 382.231C454.176 379.114 451.844 376.587 448.968 376.587C446.092 376.587 443.759 379.114 443.759 382.231Z" fill="#A0D468"/>
<path d="M425.01 382.231C425.01 385.349 427.343 387.876 430.219 387.876C433.095 387.876 435.427 385.349 435.427 382.231C435.427 379.114 433.095 376.587 430.219 376.587C427.343 376.587 425.01 379.114 425.01 382.231Z" fill="#A0D468"/>
<path d="M441.677 391.262C441.677 397.498 446.342 402.552 452.094 402.552C457.847 402.552 462.51 397.498 462.51 391.262C462.51 385.028 457.847 379.974 452.094 379.974C446.342 379.974 441.677 385.028 441.677 391.262Z" fill="#FC6E51"/>
<path d="M416.675 391.262C416.675 397.498 421.34 402.552 427.092 402.552C432.845 402.552 437.508 397.498 437.508 391.262C437.508 385.028 432.845 379.974 427.092 379.974C421.34 379.974 416.675 385.028 416.675 391.262Z" fill="#FC6E51"/>
<path d="M429.176 386.747C429.176 392.983 433.841 398.037 439.593 398.037C445.346 398.037 450.009 392.983 450.009 386.747C450.009 380.511 445.346 375.457 439.593 375.457C433.841 375.457 429.176 380.511 429.176 386.747Z" fill="#ED5564"/>
<path d="M414.691 395.001C414.347 396.192 414.958 397.459 416.056 397.832L418.044 398.507C419.142 398.878 420.311 398.216 420.654 397.025L421.279 394.872C421.622 393.681 421.01 392.415 419.913 392.042L417.925 391.367C416.826 390.995 415.657 391.656 415.314 392.847L414.691 395.001Z" fill="#FFCE54"/>
<path d="M464.497 395.001C464.84 396.192 464.23 397.459 463.132 397.832L461.145 398.507C460.046 398.878 458.877 398.216 458.533 397.025L457.91 394.872C457.567 393.681 458.177 392.415 459.276 392.042L461.264 391.367C462.361 390.995 463.53 391.656 463.875 392.847L464.497 395.001Z" fill="#FFCE54"/>
<path d="M439.595 379.974C453.401 379.974 464.595 392.104 464.595 407.07H414.595C414.595 392.104 425.787 379.974 439.595 379.974Z" fill="#F4BE8E"/>
<path d="M464.507 404.811C464.565 405.555 464.594 406.309 464.594 407.07H414.594C414.594 406.309 414.623 405.555 414.679 404.811H464.507Z" fill="#EAAD7A"/>
<path d="M446.579 387.078C446.987 387.518 446.987 388.233 446.579 388.674C446.173 389.116 445.514 389.116 445.107 388.674C444.699 388.233 444.699 387.518 445.107 387.078C445.514 386.637 446.173 386.637 446.579 387.078Z" fill="#EAAD7A"/>
<path d="M440.328 393.853C440.736 394.293 440.736 395.007 440.328 395.447C439.922 395.89 439.263 395.89 438.856 395.447C438.448 395.007 438.448 394.293 438.856 393.853C439.263 393.41 439.922 393.41 440.328 393.853Z" fill="#EAAD7A"/>
<path d="M434.08 387.078C434.488 387.518 434.488 388.233 434.08 388.674C433.674 389.116 433.015 389.116 432.608 388.674C432.2 388.233 432.2 387.518 432.608 387.078C433.015 386.637 433.674 386.637 434.08 387.078Z" fill="#EAAD7A"/>
<path d="M452.83 393.853C453.236 394.293 453.236 395.007 452.83 395.447C452.423 395.89 451.764 395.89 451.356 395.447C450.951 395.007 450.951 394.293 451.356 393.853C451.764 393.41 452.423 393.41 452.83 393.853Z" fill="#EAAD7A"/>
<path d="M446.581 400.627C446.987 401.067 446.987 401.781 446.581 402.221C446.174 402.664 445.515 402.664 445.107 402.221C444.701 401.781 444.701 401.067 445.107 400.627C445.515 400.184 446.174 400.184 446.581 400.627Z" fill="#EAAD7A"/>
<path d="M434.081 400.627C434.487 401.067 434.487 401.781 434.081 402.221C433.674 402.664 433.015 402.664 432.607 402.221C432.201 401.781 432.201 401.067 432.607 400.627C433.015 400.184 433.674 400.184 434.081 400.627Z" fill="#EAAD7A"/>
<path d="M427.828 393.853C428.234 394.293 428.234 395.007 427.828 395.447C427.421 395.89 426.762 395.89 426.354 395.447C425.949 395.007 425.949 394.293 426.354 393.853C426.762 393.41 427.421 393.41 427.828 393.853Z" fill="#EAAD7A"/>
<path d="M459.082 400.604C459.488 401.044 459.488 401.758 459.082 402.201C458.675 402.641 458.016 402.641 457.608 402.201C457.202 401.758 457.202 401.044 457.608 400.604C458.016 400.164 458.675 400.164 459.082 400.604Z" fill="#EAAD7A"/>
<path d="M420.105 400.627C420.513 400.184 421.172 400.184 421.579 400.627C421.985 401.067 421.985 401.781 421.579 402.221C421.172 402.664 420.513 402.664 420.105 402.221C419.7 401.781 419.7 401.067 420.105 400.627Z" fill="#EAAD7A"/>
</g>
<g clip-path="url(#clip3)">
<path d="M503.806 372.888L493.663 383.877L492.048 382.127L502.191 371.137L503.806 372.888Z" fill="#CCCCCC"/>
<path d="M500.133 372.228C500.293 372.81 500.585 373.358 501.01 373.817L501.17 373.992L501.332 374.165C502.699 375.647 504.916 375.647 506.285 374.165L512.57 367.354C513.938 365.871 513.938 363.468 512.57 361.985L512.249 361.636C511.824 361.176 511.318 360.86 510.781 360.687C509.587 360.296 508.238 360.615 507.295 361.636L501.01 368.448C500.066 369.471 499.772 370.934 500.133 372.228Z" fill="#E09B2D"/>
<path d="M500.133 372.227C501.328 372.617 502.676 372.298 503.62 371.277L509.905 364.465C510.847 363.444 511.141 361.981 510.78 360.687C509.586 360.296 508.237 360.615 507.295 361.636L501.01 368.448C500.066 369.471 499.772 370.933 500.133 372.227Z" fill="#F7B239"/>
<path d="M494.684 381.021H453.597C453.597 390.413 458.295 398.616 465.285 403.018L478.397 407.052L488.825 403.018C495.813 398.616 500.511 390.413 500.511 381.021H494.684Z" fill="#F95428"/>
<path d="M486.957 381.021H494.684H500.511C500.511 390.413 495.813 398.616 488.825 403.017L480.91 405.567L475.271 403.017C482.259 398.616 486.957 390.413 486.957 381.021Z" fill="#E54728"/>
<path d="M457.329 403.018V403.371C457.329 406.366 459.571 408.796 462.334 408.796H491.774C494.538 408.796 496.779 406.366 496.779 403.371V403.018H488.824H465.284H457.329Z" fill="#E6E6E6"/>
<path d="M487.947 403.371V403.018H488.824H496.779V403.371C496.779 406.366 494.538 408.796 491.774 408.796H482.941C485.705 408.796 487.947 406.366 487.947 403.371Z" fill="#CCCCCC"/>
<path d="M476.239 373.871C476.239 374.555 475.728 375.109 475.097 375.109C474.466 375.109 473.955 374.555 473.955 373.871C473.955 369.507 475.015 367.306 476.039 365.177C476.978 363.227 477.864 361.386 477.864 357.628C477.864 356.945 478.376 356.391 479.006 356.391C479.637 356.391 480.148 356.945 480.148 357.628C480.148 361.992 479.089 364.194 478.064 366.322C477.126 368.272 476.239 370.114 476.239 373.871Z" fill="#E6E6E6"/>
<path d="M482.909 373.873C482.909 374.556 482.398 375.11 481.767 375.11C481.136 375.11 480.625 374.556 480.625 373.873C480.625 369.934 481.624 367.859 482.504 366.029C483.338 364.298 484.125 362.663 484.125 359.331C484.125 358.648 484.636 358.093 485.267 358.093C485.898 358.093 486.409 358.648 486.409 359.331C486.409 363.27 485.411 365.344 484.53 367.175C483.696 368.906 482.909 370.541 482.909 373.873Z" fill="#E6E6E6"/>
<path d="M469.979 373.871C469.979 374.555 469.467 375.109 468.836 375.109C468.206 375.109 467.694 374.555 467.694 373.871C467.694 369.932 468.693 367.858 469.574 366.028C470.407 364.297 471.194 362.662 471.194 359.33C471.194 358.646 471.706 358.092 472.336 358.092C472.967 358.092 473.479 358.646 473.479 359.33C473.479 363.269 472.48 365.343 471.599 367.173C470.766 368.904 469.979 370.539 469.979 373.871Z" fill="#E6E6E6"/>
</g>
<g clip-path="url(#clip4)">
<path d="M548.195 139.449C548.195 141.335 547.2 143.004 545.674 144.03H538.57C537.044 143.004 536.049 141.335 536.049 139.449C536.049 136.331 538.768 133.801 542.122 133.801C545.478 133.801 548.195 136.331 548.195 139.449Z" fill="#F95428"/>
<path d="M541.294 139.449C541.294 137.204 542.704 135.264 544.745 134.354C543.951 134 543.062 133.801 542.122 133.801C538.768 133.801 536.049 136.331 536.049 139.449C536.049 141.335 537.044 143.004 538.57 144.03H543.815C542.289 143.004 541.294 141.335 541.294 139.449Z" fill="#E54728"/>
<path d="M559.837 164.664H558.223H549.002H535.017H525.796H524.409H518.893L526.261 185.763H530.965H537.245H546.773H553.055H557.757L565.127 164.664H559.837Z" fill="#F7B239"/>
<path d="M560.283 156.302C559.183 155.281 557.665 154.648 555.989 154.648H551.625C554.823 154.648 557.417 152.237 557.417 149.263V148.739C557.417 145.764 554.823 143.353 551.625 143.353H545.675H538.571H532.623C529.424 143.353 526.831 145.764 526.831 148.739V149.263C526.831 152.237 529.424 154.648 532.623 154.648H528.259C524.906 154.648 522.186 157.178 522.186 160.296C522.186 161.857 522.866 163.267 523.965 164.29C524.106 164.422 524.255 164.546 524.409 164.664H525.796H535.017H549.002H558.223H559.837C561.194 163.629 562.062 162.057 562.062 160.296C562.062 158.736 561.382 157.325 560.283 156.302Z" fill="#B27214"/>
<path d="M532.052 164.29C532.193 164.422 532.342 164.546 532.496 164.664H524.409C524.255 164.546 524.106 164.422 523.965 164.29C522.866 163.267 522.186 161.857 522.186 160.296C522.186 157.178 524.906 154.648 528.259 154.648H536.346C532.993 154.648 530.272 157.178 530.272 160.296C530.272 161.857 530.953 163.267 532.052 164.29Z" fill="#995C0D"/>
<path d="M540.709 154.648H532.622C529.424 154.648 526.83 152.237 526.83 149.263V148.739C526.83 145.764 529.424 143.353 532.622 143.353H540.709C537.511 143.353 534.917 145.764 534.917 148.739V149.263C534.917 152.237 537.511 154.648 540.709 154.648Z" fill="#995C0D"/>
<path d="M535.017 164.664H525.796H524.409H518.893L526.261 185.763H530.965H537.245L535.017 164.664Z" fill="#E09B2D"/>
</g>
<g clip-path="url(#clip5)">
<path d="M483.716 296.182H506.489L509.487 258.139H480.718L483.716 296.182Z" fill="#EDEDEE"/>
<path d="M483.716 296.182H495.103V258.139H480.718L483.716 296.182Z" fill="#DDDCDF"/>
<path d="M491.86 274.168L494.955 273.455L488.251 250.715L477.564 254.273L478.638 257.064L486.086 254.584L491.86 274.168Z" fill="#E3744E"/>
<path d="M508.367 272.354L506.49 296.182H483.716L481.839 272.354H508.367Z" fill="#F5DC49"/>
<path d="M495.104 272.354V296.182H483.717L481.839 272.354H495.104Z" fill="#ECAE44"/>
</g>
<g clip-path="url(#clip6)">
<path d="M470.048 276.407C470.048 277.147 469.403 277.746 468.607 277.746H466.57C465.774 277.746 465.129 277.147 465.129 276.407V252.434C465.129 251.695 465.774 251.095 466.57 251.095H468.607C469.403 251.095 470.048 251.695 470.048 252.434V276.407Z" fill="#EFAC52"/>
<path d="M479.845 276.407C479.845 277.147 479.2 277.746 478.405 277.746H476.367C475.572 277.746 474.927 277.147 474.927 276.407V252.434C474.927 251.695 475.572 251.095 476.367 251.095H478.405C479.2 251.095 479.845 251.695 479.845 252.434V276.407Z" fill="#EFAC52"/>
<path d="M465.127 269.477C465.127 270.217 464.482 270.816 463.686 270.816H461.649C460.853 270.816 460.208 270.217 460.208 269.477V256.076C460.208 255.336 460.853 254.736 461.649 254.736H463.686C464.482 254.736 465.127 255.336 465.127 256.076V269.477Z" fill="#FEE298"/>
<path opacity="0.15" d="M462.249 269.477V256.076C462.249 255.336 462.893 254.737 463.688 254.736C463.687 254.736 463.687 254.736 463.686 254.736H461.649C460.853 254.736 460.208 255.336 460.208 256.076V269.477C460.208 270.217 460.853 270.816 461.649 270.816H463.686C463.687 270.816 463.687 270.816 463.688 270.816C462.893 270.816 462.249 270.216 462.249 269.477Z" fill="#202020"/>
<path d="M474.928 275.074C474.928 275.814 474.282 276.414 473.487 276.414H471.449C470.654 276.414 470.009 275.814 470.009 275.074V256.076C470.009 255.336 470.654 254.736 471.449 254.736H473.487C474.282 254.736 474.928 255.336 474.928 256.076V275.074Z" fill="#FEE298"/>
<path d="M484.764 271.977C484.764 272.717 484.119 273.316 483.324 273.316H481.286C480.491 273.316 479.846 272.717 479.846 271.977V256.076C479.846 255.336 480.491 254.736 481.286 254.736H483.324C484.12 254.736 484.764 255.336 484.764 256.076V271.977Z" fill="#FEE298"/>
<path d="M485.935 268.2C485.799 268.065 485.609 267.989 485.411 267.989H478.543C478.145 267.989 477.823 268.289 477.823 268.659V270.417C477.823 270.594 477.795 270.769 477.741 270.936C477.707 271.045 477.66 271.15 477.604 271.25C477.577 271.299 477.546 271.347 477.513 271.394C477.176 271.876 476.615 272.164 476.012 272.164H469.072C468.47 272.164 467.909 271.876 467.571 271.393C467.368 271.105 467.262 270.767 467.262 270.417V268.659C467.262 268.289 466.939 267.989 466.541 267.989H459.673C459.475 267.989 459.286 268.065 459.149 268.2C459.013 268.334 458.943 268.514 458.954 268.698L460.676 296.15C460.698 296.504 461.014 296.781 461.395 296.781H483.689C484.071 296.781 484.386 296.504 484.408 296.15L486.13 268.698C486.142 268.514 486.071 268.334 485.935 268.2Z" fill="#E95353"/>
<path opacity="0.15" d="M459.642 279.635H461.308C462.083 278.295 463.111 275.795 461.266 272.991L460.997 268.698C460.986 268.514 461.056 268.333 461.193 268.199C461.329 268.065 461.518 267.989 461.716 267.989H459.675C459.477 267.989 459.288 268.065 459.151 268.199C459.015 268.333 458.945 268.514 458.956 268.698L459.642 279.635Z" fill="#202020"/>
<path d="M461.045 292.583H450.333C450.14 292.583 449.956 292.654 449.82 292.782L447.771 294.715L445.721 292.782C445.586 292.654 445.401 292.583 445.208 292.583H431.426C431.029 292.583 430.706 292.882 430.706 293.252V295.41C430.706 296.343 431.278 297.101 431.982 297.101H460.49C461.193 297.101 461.766 296.343 461.766 295.41V293.252C461.766 292.882 461.443 292.583 461.045 292.583Z" fill="#EFAC52"/>
<g opacity="0.15">
<path opacity="0.15" d="M432.767 295.41V293.252C432.767 292.882 433.09 292.583 433.488 292.583H431.426C431.029 292.583 430.706 292.882 430.706 293.252V295.41C430.706 296.343 431.278 297.101 431.982 297.101H434.043C433.339 297.101 432.767 296.343 432.767 295.41Z" fill="#202020"/>
</g>
<path d="M461.47 276.967C460.377 271.411 452.161 269.792 446.353 269.792C440.564 269.792 432.119 271.385 431.006 276.916C431.006 276.916 430.49 280.702 432.434 280.702H460.558C461.096 280.592 461.811 279.065 461.47 276.967Z" fill="#EFAC52"/>
<path d="M441.158 288.75H433.234H433.141C431.875 288.75 430.85 289.646 430.85 290.751V290.771C430.85 291.876 431.875 292.772 433.141 292.772H445.423L441.158 288.75Z" fill="#D33D3D"/>
<path d="M459.633 288.75H454.383L450.118 292.772H459.634C460.899 292.772 461.924 291.876 461.924 290.771V290.751C461.924 289.646 460.899 288.75 459.633 288.75Z" fill="#D33D3D"/>
<path d="M439.897 274.217C439.399 274.217 438.996 273.842 438.996 273.38V273.253C438.996 272.791 439.399 272.416 439.897 272.416C440.394 272.416 440.797 272.791 440.797 273.253V273.38C440.797 273.842 440.394 274.217 439.897 274.217Z" fill="#FEE298"/>
<path d="M444.272 274.217C443.774 274.217 443.371 273.842 443.371 273.38V273.253C443.371 272.791 443.774 272.416 444.272 272.416C444.769 272.416 445.172 272.791 445.172 273.253V273.38C445.172 273.842 444.769 274.217 444.272 274.217Z" fill="#FEE298"/>
<path d="M448.643 274.217C448.145 274.217 447.742 273.842 447.742 273.38V273.253C447.742 272.791 448.145 272.416 448.643 272.416C449.14 272.416 449.543 272.791 449.543 273.253V273.38C449.543 273.842 449.14 274.217 448.643 274.217Z" fill="#FEE298"/>
<path d="M453.019 274.217C452.521 274.217 452.118 273.842 452.118 273.38V273.253C452.118 272.791 452.521 272.416 453.019 272.416C453.516 272.416 453.919 272.791 453.919 273.253V273.38C453.919 273.842 453.516 274.217 453.019 274.217Z" fill="#FEE298"/>
<path d="M442.083 277.314C441.586 277.314 441.183 276.939 441.183 276.477V276.351C441.183 275.888 441.586 275.513 442.083 275.513C442.58 275.513 442.984 275.888 442.984 276.351V276.477C442.984 276.939 442.58 277.314 442.083 277.314Z" fill="#FEE298"/>
<path d="M446.455 277.314C445.958 277.314 445.555 276.939 445.555 276.477V276.351C445.555 275.888 445.958 275.513 446.455 275.513C446.952 275.513 447.356 275.888 447.356 276.351V276.477C447.356 276.939 446.952 277.314 446.455 277.314Z" fill="#FEE298"/>
<path d="M450.831 277.314C450.334 277.314 449.931 276.939 449.931 276.477V276.351C449.931 275.888 450.334 275.513 450.831 275.513C451.328 275.513 451.732 275.888 451.732 276.351V276.477C451.732 276.939 451.328 277.314 450.831 277.314Z" fill="#FEE298"/>
<path d="M461.711 284.005H431.155C430.658 284.005 430.255 283.63 430.255 283.167C430.255 282.705 430.658 282.33 431.155 282.33H461.711C462.208 282.33 462.611 282.705 462.611 283.167C462.611 283.63 462.208 284.005 461.711 284.005Z" fill="#7DC44E"/>
<path opacity="0.15" d="M433.067 276.916C434.116 271.706 441.668 269.99 447.38 269.808C447.031 269.797 446.688 269.792 446.353 269.792C440.564 269.792 432.119 271.385 431.006 276.916C431.006 276.916 430.49 280.702 432.434 280.702H434.495C432.551 280.701 433.067 276.916 433.067 276.916Z" fill="#202020"/>
<path opacity="0.15" d="M432.911 290.77V290.75C432.911 289.645 433.936 288.75 435.201 288.75H433.234H433.141C431.875 288.75 430.85 289.645 430.85 290.75V290.77C430.85 291.875 431.875 292.772 433.141 292.772H435.202C433.936 292.771 432.911 291.875 432.911 290.77Z" fill="#202020"/>
<path d="M455.546 287.682C455.453 287.475 455.235 287.339 454.993 287.339H440.548C440.306 287.339 440.087 287.475 439.994 287.682C439.9 287.89 439.95 288.129 440.12 288.289L447.343 295.1C447.455 295.206 447.61 295.266 447.77 295.266C447.931 295.266 448.085 295.206 448.198 295.1L455.42 288.289C455.59 288.129 455.64 287.89 455.546 287.682Z" fill="#FCAF29"/>
<path opacity="0.15" d="M442.181 288.289C442.011 288.129 441.961 287.89 442.055 287.682C442.148 287.475 442.367 287.339 442.609 287.339H440.548C440.306 287.339 440.087 287.475 439.994 287.682C439.9 287.89 439.95 288.129 440.12 288.289L447.343 295.1C447.455 295.206 447.61 295.266 447.77 295.266C447.931 295.266 448.085 295.206 448.198 295.1L448.801 294.531L442.181 288.289Z" fill="#202020"/>
<path d="M460.814 287.522C460.814 288.262 460.169 288.862 459.373 288.862H433.496C432.701 288.862 432.056 288.262 432.056 287.522V287.398C432.056 286.658 432.701 286.059 433.496 286.059H459.373C460.168 286.059 460.813 286.658 460.813 287.398V287.522H460.814Z" fill="#8C5549"/>
<path opacity="0.15" d="M434.115 287.41V287.287C434.115 286.547 434.76 285.947 435.556 285.947H433.494C432.699 285.947 432.054 286.547 432.054 287.287V287.41C432.054 288.15 432.699 288.75 433.494 288.75H435.556C434.76 288.75 434.115 288.15 434.115 287.41Z" fill="#202020"/>
</g>
<path d="M534.777 289.979L535.245 295.975H555.245L555.712 289.979H534.777Z" fill="#BD9F79"/>
<path d="M532.691 263.229L533.159 269.225H557.331L557.798 263.229H532.691Z" fill="#BD9F79"/>
<path d="M533.159 269.225L534.778 289.979H555.712L557.331 269.225H533.159ZM540.917 284.293C539.271 282.508 539.873 278.961 542.263 276.37C544.653 273.78 547.926 273.127 549.573 274.912C551.22 276.697 550.617 280.243 548.227 282.834C545.837 285.425 542.564 286.078 540.917 284.293Z" fill="#F9EBDB"/>
<path d="M549.571 274.912L540.915 284.293C542.562 286.077 545.835 285.424 548.225 282.834C550.615 280.243 551.218 276.696 549.571 274.912Z" fill="#B75548"/>
<path d="M542.261 276.37C539.872 278.961 539.269 282.508 540.916 284.293L549.571 274.912C547.924 273.127 544.651 273.78 542.261 276.37Z" fill="#8E4238"/>
<path d="M535.243 254.005L533.966 259.54H556.52L555.243 254.005H535.243Z" fill="#E8D6BD"/>
<path d="M531.413 259.54H559.072V263.229H531.413V259.54Z" fill="#F9EBDB"/>
<path d="M543.366 285.991C542.198 285.991 541.194 285.573 540.465 284.783C539.513 283.75 539.153 282.233 539.446 280.508C539.723 278.875 540.562 277.232 541.809 275.881C543.35 274.211 545.335 273.214 547.118 273.214C548.288 273.214 549.291 273.632 550.021 274.423C550.97 275.452 551.332 276.969 551.038 278.696C550.761 280.329 549.922 281.972 548.675 283.323C547.134 284.993 545.15 285.991 543.366 285.991ZM549.506 275.96L547.842 277.762C547.718 277.897 547.555 277.965 547.391 277.965C547.228 277.965 547.064 277.897 546.94 277.762C546.69 277.492 546.69 277.054 546.94 276.784L548.603 274.981C548.186 274.729 547.683 274.598 547.118 274.598C545.666 274.598 544.018 275.443 542.711 276.859C541.646 278.014 540.932 279.399 540.701 280.759C540.537 281.725 540.636 282.582 540.978 283.245L545.134 278.74C545.384 278.47 545.788 278.47 546.037 278.74C546.286 279.011 546.286 279.449 546.037 279.719L541.881 284.224C542.298 284.476 542.801 284.607 543.366 284.607C544.818 284.607 546.466 283.761 547.773 282.345C548.838 281.19 549.552 279.805 549.783 278.446C549.947 277.48 549.848 276.622 549.506 275.96Z" fill="#700D00"/>
<g clip-path="url(#clip7)">
<path d="M552.749 268.406C552.675 267.286 553.462 266.369 554.498 266.369H575.107C576.143 266.369 576.93 267.286 576.857 268.406L575.09 295.249C575.017 296.37 574.109 297.286 573.073 297.286H556.533C555.497 297.286 554.589 296.37 554.515 295.249L552.749 268.406Z" fill="#D9CAB1"/>
<path d="M551.825 264.957H577.779V269.947H551.825V264.957Z" fill="#DCDDDE"/>
<path d="M553.081 262.461H576.519V264.957H553.081V262.461Z" fill="#C3C6C8"/>
<path d="M552.339 278.008C552.28 277.262 552.796 276.652 553.487 276.652H576.113C576.804 276.652 577.32 277.262 577.261 278.008L576.655 285.647C576.596 286.393 575.983 287.003 575.292 287.003H554.308C553.617 287.003 553.004 286.393 552.945 285.647L552.339 278.008Z" fill="#B6DBA7"/>
<path d="M564.799 284.958C563.204 284.958 561.911 283.556 561.911 281.827C561.911 280.098 563.204 278.697 564.799 278.697C566.394 278.697 567.688 280.098 567.688 281.827C567.688 283.556 566.394 284.958 564.799 284.958Z" fill="white"/>
<path d="M564.8 281.828C564.8 279.787 564.705 279.854 565.208 279.854C565.711 279.854 566.118 280.737 566.118 281.828C566.118 282.917 565.711 283.801 565.208 283.801C564.705 283.801 564.8 283.868 564.8 281.828Z" fill="#A88D63"/>
<path d="M564.801 281.828C564.801 279.787 564.895 279.854 564.392 279.854C563.89 279.854 563.482 280.737 563.482 281.828C563.482 282.917 563.89 283.801 564.392 283.801C564.895 283.801 564.801 283.868 564.801 281.828Z" fill="#A88D63"/>
<path d="M556.512 255.292H554.252L556.01 262.462H558.271L556.512 255.292Z" fill="#DCDDDE"/>
</g>
<path d="M547.862 326.06H557.933C558.287 326.06 558.627 326.203 558.877 326.459C559.128 326.715 559.269 327.062 559.269 327.423V331.939C559.269 332.301 559.128 332.647 558.877 332.903C558.627 333.159 558.287 333.303 557.933 333.303H556.264V340.068H549.531V333.303H547.862C547.508 333.303 547.169 333.159 546.918 332.903C546.668 332.647 546.527 332.301 546.527 331.939V327.423C546.527 327.062 546.668 326.715 546.918 326.459C547.169 326.203 547.508 326.06 547.862 326.06Z" fill="#E6E6E6"/>
<path d="M537.502 366.984C543.67 357.766 546.823 346.789 546.51 335.628C546.504 335.37 546.586 335.119 546.742 334.916C546.897 334.713 547.116 334.571 547.362 334.515V332.563H557.999V334.487H558.145C558.435 334.488 558.712 334.606 558.917 334.815C559.121 335.024 559.236 335.308 559.235 335.604C559.235 335.631 559.234 335.658 559.232 335.685C558.394 347.616 561.224 358.316 567.721 367.785C568.095 368.329 568.286 368.982 568.265 369.647L567.102 406.395C567.074 407.214 566.737 407.991 566.162 408.563C565.587 409.136 564.817 409.459 564.014 409.465H539.957C539.145 409.458 538.367 409.128 537.79 408.544C537.213 407.961 536.882 407.17 536.867 406.341L536.419 370.661C536.406 369.352 536.784 368.069 537.502 366.984Z" fill="#FF983B"/>
<path d="M541.177 374.833H562.118C562.428 374.833 562.734 374.901 563.016 375.033C563.297 375.165 563.548 375.358 563.749 375.599C563.951 375.839 564.1 376.121 564.185 376.425C564.27 376.73 564.29 377.05 564.243 377.363L561.078 398.373H542.908L539.064 377.433C539.006 377.116 539.017 376.79 539.096 376.477C539.176 376.165 539.321 375.874 539.523 375.626C539.725 375.378 539.978 375.178 540.263 375.041C540.549 374.904 540.861 374.833 541.177 374.833Z" fill="white"/>
<g clip-path="url(#clip8)">
<path d="M584.836 364.64C593.912 364.64 601.27 372.614 601.27 382.451C601.27 389.362 597.639 395.353 592.331 398.306L570.208 374.327C572.932 368.575 578.46 364.64 584.836 364.64Z" fill="#DC774E"/>
<path d="M570.209 374.327C564.902 377.281 561.271 383.271 561.271 390.182C561.271 400.019 568.628 407.993 577.704 407.993C584.081 407.993 589.608 404.058 592.333 398.305C593.486 395.87 594.138 393.108 594.138 390.182C594.138 380.345 586.78 372.371 577.704 372.371C575.004 372.371 572.456 373.077 570.209 374.327Z" fill="#F7CD95"/>
<path d="M593.659 375.814C592.972 376.56 592.972 377.766 593.659 378.51C594.346 379.254 595.459 379.254 596.145 378.51C596.832 377.766 596.832 376.56 596.145 375.814C595.459 375.07 594.346 375.07 593.659 375.814Z" fill="#8E4238"/>
<path d="M571.672 396.081C570.702 396.081 569.914 396.934 569.914 397.987C569.914 399.04 570.702 399.892 571.672 399.892C572.644 399.892 573.431 399.04 573.431 397.987C573.431 396.934 572.644 396.081 571.672 396.081Z" fill="#8E4238"/>
<path d="M574.644 379.474C572.702 379.474 571.127 381.18 571.127 383.285C571.127 385.39 572.702 387.096 574.644 387.096C576.587 387.096 578.16 385.39 578.16 383.285C578.16 381.18 576.586 379.474 574.644 379.474Z" fill="#8E4238"/>
<path d="M587.778 384.17C586.807 384.17 586.02 385.023 586.02 386.076C586.02 387.129 586.807 387.982 587.778 387.982C588.749 387.982 589.536 387.129 589.536 386.076C589.536 385.023 588.749 384.17 587.778 384.17Z" fill="#B75548"/>
<path d="M582.537 400.89C580.595 400.89 579.021 399.183 579.021 397.078C579.021 394.973 580.595 393.267 582.537 393.267C584.479 393.267 586.054 394.973 586.054 397.078C586.054 399.183 584.479 400.89 582.537 400.89Z" fill="#8E4238"/>
<path d="M567.631 389.286C566.661 389.286 565.873 390.139 565.873 391.192C565.873 392.245 566.661 393.097 567.631 393.097C568.603 393.097 569.39 392.245 569.39 391.192C569.39 390.139 568.603 389.286 567.631 389.286Z" fill="#B75548"/>
<path d="M585.149 370.552C584.785 370.552 584.49 370.232 584.49 369.837C584.49 369.443 584.785 369.123 585.149 369.123C585.513 369.123 585.809 369.443 585.809 369.837C585.809 370.232 585.513 370.552 585.149 370.552Z" fill="#700D00"/>
<path d="M581.666 383.999C581.302 383.999 581.006 383.679 581.006 383.284C581.006 382.89 581.302 382.57 581.666 382.57C582.03 382.57 582.325 382.89 582.325 383.284C582.325 383.679 582.03 383.999 581.666 383.999Z" fill="#700D00"/>
<path d="M576.182 392.986C575.818 392.986 575.523 392.666 575.523 392.271C575.523 391.877 575.818 391.557 576.182 391.557C576.547 391.557 576.842 391.877 576.842 392.271C576.842 392.666 576.547 392.986 576.182 392.986Z" fill="#700D00"/>
</g>
</g>
<defs>
<clipPath id="clip0">
<rect width="637" height="543" fill="white" transform="matrix(-1 0 0 1 637 0)"/>
</clipPath>
<clipPath id="clip1">
<rect width="40" height="43.3533" fill="white" transform="matrix(-1 0 0 1 325 332.401)"/>
</clipPath>
<clipPath id="clip2">
<rect width="50" height="54.1916" fill="white" transform="matrix(-1 0 0 1 464.594 364.168)"/>
</clipPath>
<clipPath id="clip3">
<rect width="60" height="65.03" fill="white" transform="matrix(-1 0 0 1 513.596 350.078)"/>
</clipPath>
<clipPath id="clip4">
<rect width="55.8772" height="51.9617" fill="white" transform="translate(514.07 133.801)"/>
</clipPath>
<clipPath id="clip5">
<rect width="48.8926" height="45.4665" fill="white" transform="matrix(-1 0 0 1 517.972 250.715)"/>
</clipPath>
<clipPath id="clip6">
<rect width="55.8772" height="51.9618" fill="white" transform="translate(430.255 248.117)"/>
</clipPath>
<clipPath id="clip7">
<rect width="40" height="43.3533" fill="white" transform="matrix(-1 0 0 1 584.801 254.612)"/>
</clipPath>
<clipPath id="clip8">
<rect width="40" height="43.3533" fill="white" transform="matrix(-1 0 0 1 601.27 364.64)"/>
</clipPath>
</defs>
</svg>
