<svg width="30" height="30" viewBox="0 0 30 30" fill="none" xmlns="http://www.w3.org/2000/svg">
<path d="M14.9777 0.4375C7.00964 0.4375 0.527353 6.9198 0.527353 14.8878C0.527353 17.6907 1.32303 20.3828 2.83536 22.7193L0.640211 27.5547C0.437886 28.0006 0.511568 28.5229 0.82917 28.8953C1.07251 29.1806 1.42537 29.3383 1.78933 29.3383C1.90052 29.3383 2.0127 29.3236 2.12305 29.2933L8.17146 27.6338C10.2595 28.7505 12.6012 29.3383 14.9777 29.3383C22.9457 29.3383 29.4281 22.8558 29.4281 14.8878C29.4281 6.91979 22.9457 0.4375 14.9777 0.4375ZM14.9777 26.8145C12.8673 26.8145 10.7906 26.2531 8.97249 25.1907C8.7776 25.0768 8.55757 25.0184 8.33594 25.0184C8.22401 25.0184 8.11173 25.0334 8.00205 25.0634L4.05081 26.1475L5.42706 23.1157C5.6141 22.7035 5.56615 22.2228 5.30134 21.8558C3.82919 19.8153 3.05114 17.4059 3.05114 14.8878C3.05114 8.31141 8.40136 2.96119 14.9777 2.96119C21.5541 2.96119 26.9044 8.31141 26.9044 14.8878C26.9043 21.4642 21.5541 26.8145 14.9777 26.8145Z" fill="white"/>
<path d="M14.9777 0.4375C7.00964 0.4375 0.527353 6.9198 0.527353 14.8878C0.527353 17.6907 1.32303 20.3828 2.83536 22.7193L0.640211 27.5547C0.437886 28.0006 0.511568 28.5229 0.82917 28.8953C1.07251 29.1806 1.42537 29.3383 1.78933 29.3383C1.90052 29.3383 2.0127 29.3236 2.12305 29.2933L8.17146 27.6338C10.2595 28.7505 12.6012 29.3383 14.9777 29.3383C22.9457 29.3383 29.4281 22.8558 29.4281 14.8878C29.4281 6.91979 22.9457 0.4375 14.9777 0.4375ZM14.9777 26.8145C12.8673 26.8145 10.7906 26.2531 8.97249 25.1907C8.7776 25.0768 8.55757 25.0184 8.33594 25.0184C8.22401 25.0184 8.11173 25.0334 8.00205 25.0634L4.05081 26.1475L5.42706 23.1157C5.6141 22.7035 5.56615 22.2228 5.30134 21.8558C3.82919 19.8153 3.05114 17.4059 3.05114 14.8878C3.05114 8.31141 8.40136 2.96119 14.9777 2.96119C21.5541 2.96119 26.9044 8.31141 26.9044 14.8878C26.9043 21.4642 21.5541 26.8145 14.9777 26.8145Z" stroke="white"/>
<path fill-rule="evenodd" clip-rule="evenodd" d="M20.5316 17.0518C19.9264 16.6898 19.1389 16.2857 18.426 16.5774C17.8792 16.8012 17.5299 17.6573 17.1757 18.0945C16.9936 18.3189 16.7766 18.354 16.4973 18.2416C14.4443 17.4237 12.8709 16.0531 11.738 14.1647C11.5461 13.8711 11.5805 13.6397 11.8118 13.3676C12.1542 12.9648 12.5839 12.5072 12.6764 11.9639C12.769 11.421 12.5144 10.786 12.2898 10.3025C12.003 9.68459 11.6822 8.80337 11.0634 8.45385C10.4941 8.13241 9.74482 8.31234 9.23784 8.72518C8.36289 9.43774 7.94078 10.554 7.9534 11.6607C7.95699 11.9751 7.99567 12.2887 8.0691 12.5922C8.24561 13.3222 8.58293 14.0036 8.96268 14.6517C9.24888 15.1402 9.55996 15.6144 9.89561 16.0703C10.9939 17.5622 12.3601 18.8586 13.9419 19.8274C14.7323 20.3115 15.5837 20.7361 16.4653 21.0273C17.454 21.3539 18.335 21.6941 19.4026 21.4913C20.5204 21.279 21.6224 20.5872 22.066 19.51C22.1972 19.1912 22.2632 18.8359 22.1896 18.4991C22.0377 17.8027 21.0949 17.3887 20.5316 17.0518Z" fill="white"/>
</svg>
