<svg width="70" height="70" viewBox="0 0 70 70" fill="none" xmlns="http://www.w3.org/2000/svg">
<path d="M68.8334 35V37.3333C68.8334 38.6167 67.7647 39.6667 66.4592 39.6667H3.54085C2.23535 39.6667 1.16669 38.6167 1.16669 37.3333V35H68.8334Z" fill="#BD852D"/>
<path d="M5.83335 37.3333V35H1.16669V37.3333C1.16669 38.6167 2.21669 39.6667 3.50002 39.6667H8.16669C6.88335 39.6667 5.83335 38.6167 5.83335 37.3333Z" fill="#CA9D57"/>
<path d="M62.3117 25.1883C62.7433 25.6083 63 26.1917 63 26.8333C63 28.1167 61.95 29.1667 60.6667 29.1667H57.1667L54.775 35H16.4267L12.8333 29.1667H9.33333C8.05 29.1667 7 28.1167 7 26.8333C7 25.55 8.05 24.5 9.33333 24.5H60.6667C61.3083 24.5 61.8917 24.7567 62.3117 25.1883Z" fill="#E6E6E6"/>
<path d="M14 29.1667C12.7167 29.1667 11.6667 28.1167 11.6667 26.8333C11.6667 25.55 12.7167 24.5 14 24.5H9.33333C8.05 24.5 7 25.55 7 26.8333C7 28.1167 8.05 29.1667 9.33333 29.1667H12.8333L16.4267 35H21.0933L17.5 29.1667H14Z" fill="#E4DADA"/>
<path d="M59.5 23.9166H45.5H31.5C31.5 16.1816 37.765 9.91663 45.5 9.91663C53.235 9.91663 59.5 16.1816 59.5 23.9166Z" fill="#F7BD63"/>
<path d="M45.5 14.5833C51.814 14.5833 57.1445 18.6667 58.8922 24.5H59.5C59.5 16.3333 53.235 10.5 45.5 10.5C37.765 10.5 31.5 16.3333 31.5 24.5H32.1078C33.8555 18.6667 39.186 14.5833 45.5 14.5833Z" fill="#FFD89A"/>
<path d="M43.1667 19.8333C43.811 19.8333 44.3333 19.311 44.3333 18.6667C44.3333 18.0223 43.811 17.5 43.1667 17.5C42.5223 17.5 42 18.0223 42 18.6667C42 19.311 42.5223 19.8333 43.1667 19.8333Z" fill="#FEF0D8"/>
<path d="M47.8334 16.3333C48.4777 16.3333 49 15.811 49 15.1667C49 14.5223 48.4777 14 47.8334 14C47.189 14 46.6667 14.5223 46.6667 15.1667C46.6667 15.811 47.189 16.3333 47.8334 16.3333Z" fill="#FEF0D8"/>
<path d="M36.1667 23.9166H11.6667C11.6667 17.15 17.15 11.6666 23.9167 11.6666C30.6834 11.6666 36.1667 17.15 36.1667 23.9166Z" fill="#FEDDE0"/>
<path d="M26.25 14.2917C29.0384 14.2917 31.5992 15.0874 33.6572 16.6554C31.4195 13.7177 27.895 12.0319 23.9167 12.0319C17.15 12.0307 11.6667 17.5 11.6667 24.5H14.2275C15.3184 18.6667 20.2825 14.2917 26.25 14.2917Z" fill="#FEEBEC"/>
<path d="M30.3333 23.9167H17.5C17.5 20.37 20.37 17.5 23.9167 17.5C27.4633 17.5 30.3333 20.37 30.3333 23.9167Z" fill="#F85766"/>
</svg>
